<svg width="662.974" height="27.905" viewBox="0 0 662.974 27.905" xmlns="http://www.w3.org/2000/svg"><g id="svgGroup" stroke-linecap="round" fill-rule="evenodd" font-size="9pt" stroke="#000000" stroke-width="0.25mm" fill="#000" style="stroke:#000000;stroke-width:0.25mm;fill:#000"><path d="M 191.543 8.892 L 184.951 8.892 L 184.951 21.606 L 182.065 21.606 L 182.065 8.892 L 175.459 8.892 L 175.459 21.606 L 172.588 21.606 L 172.588 6.006 L 175.459 6.006 L 175.459 8.76 A 2.886 2.886 0 0 1 175.723 7.683 A 2.9 2.9 0 0 1 176.345 6.804 Q 176.733 6.431 177.246 6.218 A 2.837 2.837 0 0 1 178.326 6.006 A 3.239 3.239 0 0 1 178.345 6.006 L 182.065 6.006 A 2.804 2.804 0 0 1 183.149 6.218 A 2.961 2.961 0 0 1 184.058 6.804 A 2.943 2.943 0 0 1 184.695 7.683 A 2.623 2.623 0 0 1 184.951 8.76 A 2.975 2.975 0 0 1 185.208 7.683 Q 185.435 7.178 185.823 6.804 Q 186.211 6.431 186.724 6.218 A 2.837 2.837 0 0 1 187.804 6.006 A 3.239 3.239 0 0 1 187.822 6.006 L 191.543 6.006 A 2.822 2.822 0 0 1 192.671 6.233 Q 193.198 6.46 193.586 6.848 Q 193.975 7.236 194.202 7.764 A 2.822 2.822 0 0 1 194.429 8.892 L 194.429 21.606 L 191.543 21.606 L 191.543 8.892 Z M 428.906 8.892 L 422.314 8.892 L 422.314 21.606 L 419.429 21.606 L 419.429 8.892 L 412.822 8.892 L 412.822 21.606 L 409.951 21.606 L 409.951 6.006 L 412.822 6.006 L 412.822 8.76 A 2.886 2.886 0 0 1 413.086 7.683 A 2.9 2.9 0 0 1 413.708 6.804 Q 414.097 6.431 414.609 6.218 A 2.837 2.837 0 0 1 415.69 6.006 A 3.239 3.239 0 0 1 415.708 6.006 L 419.429 6.006 A 2.804 2.804 0 0 1 420.513 6.218 A 2.961 2.961 0 0 1 421.421 6.804 A 2.943 2.943 0 0 1 422.058 7.683 A 2.623 2.623 0 0 1 422.314 8.76 A 2.975 2.975 0 0 1 422.571 7.683 Q 422.798 7.178 423.186 6.804 Q 423.574 6.431 424.087 6.218 A 2.837 2.837 0 0 1 425.167 6.006 A 3.239 3.239 0 0 1 425.186 6.006 L 428.906 6.006 A 2.822 2.822 0 0 1 430.034 6.233 Q 430.562 6.46 430.95 6.848 Q 431.338 7.236 431.565 7.764 A 2.822 2.822 0 0 1 431.792 8.892 L 431.792 21.606 L 428.906 21.606 L 428.906 8.892 Z M 231.152 21.606 L 228.149 21.606 L 223.11 6.006 L 226.025 6.006 L 229.717 17.769 L 233.159 6.006 L 236.104 6.006 L 239.546 17.769 L 243.237 6.006 L 246.152 6.006 L 241.113 21.606 L 238.11 21.606 L 234.624 10.151 L 231.152 21.606 Z M 46.772 18.12 L 46.772 8.892 A 2.822 2.822 0 0 1 47 7.764 Q 47.227 7.236 47.615 6.848 Q 48.003 6.46 48.53 6.233 A 2.786 2.786 0 0 1 49.644 6.006 L 54.814 6.006 A 2.804 2.804 0 0 1 55.898 6.218 Q 56.411 6.431 56.799 6.804 Q 57.188 7.178 57.429 7.683 A 2.623 2.623 0 0 1 57.686 8.76 L 57.686 6.006 L 60.571 6.006 L 60.571 25.02 A 2.822 2.822 0 0 1 60.344 26.147 Q 60.117 26.675 59.729 27.063 Q 59.341 27.451 58.813 27.678 A 2.822 2.822 0 0 1 57.686 27.905 L 48.574 27.905 L 48.574 25.02 L 57.686 25.02 L 57.686 21.006 L 49.644 21.006 A 2.786 2.786 0 0 1 48.53 20.779 Q 48.003 20.552 47.615 20.164 Q 47.227 19.775 47 19.248 A 2.822 2.822 0 0 1 46.772 18.12 Z M 531.504 18.721 L 541.23 18.721 L 541.23 15.103 L 534.39 15.103 A 2.822 2.822 0 0 1 533.262 14.875 Q 532.734 14.648 532.346 14.26 Q 531.958 13.872 531.731 13.345 A 2.822 2.822 0 0 1 531.504 12.217 L 531.504 8.892 A 2.822 2.822 0 0 1 531.731 7.764 Q 531.958 7.236 532.346 6.848 Q 532.734 6.46 533.262 6.233 A 2.822 2.822 0 0 1 534.39 6.006 L 543.516 6.006 L 543.516 8.892 L 534.39 8.892 L 534.39 12.217 L 541.23 12.217 Q 541.831 12.217 542.351 12.444 Q 542.871 12.671 543.267 13.059 Q 543.662 13.447 543.889 13.975 A 2.822 2.822 0 0 1 544.116 15.103 L 544.116 18.721 A 2.822 2.822 0 0 1 543.889 19.849 Q 543.662 20.376 543.267 20.764 Q 542.871 21.152 542.351 21.379 A 2.76 2.76 0 0 1 541.268 21.606 A 3.159 3.159 0 0 1 541.23 21.606 L 531.504 21.606 L 531.504 18.721 Z M 341.25 8.892 L 341.25 21.606 L 338.364 21.606 L 338.364 8.892 L 330.322 8.892 L 330.322 21.606 L 327.451 21.606 L 327.451 6.006 L 330.322 6.006 L 330.322 8.76 A 2.886 2.886 0 0 1 330.586 7.683 A 2.9 2.9 0 0 1 331.208 6.804 Q 331.597 6.431 332.109 6.218 A 2.837 2.837 0 0 1 333.19 6.006 A 3.239 3.239 0 0 1 333.208 6.006 L 338.364 6.006 A 2.822 2.822 0 0 1 339.492 6.233 Q 340.02 6.46 340.408 6.848 Q 340.796 7.236 341.023 7.764 A 2.822 2.822 0 0 1 341.25 8.892 Z M 129.272 18.721 L 129.272 6.006 L 132.144 6.006 L 132.144 18.721 L 140.186 18.721 L 140.186 6.006 L 143.071 6.006 L 143.071 21.606 L 140.186 21.606 L 140.186 18.97 A 2.693 2.693 0 0 1 139.893 19.995 Q 139.644 20.479 139.255 20.837 Q 138.867 21.196 138.369 21.401 A 2.743 2.743 0 0 1 137.314 21.606 L 132.144 21.606 A 2.786 2.786 0 0 1 131.03 21.379 Q 130.503 21.152 130.115 20.764 Q 129.727 20.376 129.5 19.849 A 2.822 2.822 0 0 1 129.272 18.721 Z M 455.2 18.721 L 455.2 6.006 L 458.071 6.006 L 458.071 18.721 L 466.113 18.721 L 466.113 6.006 L 468.999 6.006 L 468.999 21.606 L 466.113 21.606 L 466.113 18.97 A 2.693 2.693 0 0 1 465.82 19.995 Q 465.571 20.479 465.183 20.837 Q 464.795 21.196 464.297 21.401 A 2.743 2.743 0 0 1 463.242 21.606 L 458.071 21.606 A 2.786 2.786 0 0 1 456.958 21.379 Q 456.431 21.152 456.042 20.764 Q 455.654 20.376 455.427 19.849 A 2.822 2.822 0 0 1 455.2 18.721 Z M 584.619 18.721 L 584.619 6.006 L 587.49 6.006 L 587.49 18.721 L 595.532 18.721 L 595.532 6.006 L 598.418 6.006 L 598.418 21.606 L 595.532 21.606 L 595.532 18.97 A 2.693 2.693 0 0 1 595.239 19.995 Q 594.99 20.479 594.602 20.837 Q 594.214 21.196 593.716 21.401 A 2.743 2.743 0 0 1 592.661 21.606 L 587.49 21.606 A 2.786 2.786 0 0 1 586.377 21.379 Q 585.85 21.152 585.461 20.764 Q 585.073 20.376 584.846 19.849 A 2.822 2.822 0 0 1 584.619 18.721 Z M 383.965 8.892 L 376.523 8.892 L 376.523 18.721 L 383.965 18.721 L 383.965 16.084 L 386.851 16.084 L 386.851 18.721 A 2.822 2.822 0 0 1 386.624 19.849 Q 386.396 20.376 386.008 20.764 Q 385.62 21.152 385.093 21.379 A 2.822 2.822 0 0 1 383.965 21.606 L 376.523 21.606 A 2.786 2.786 0 0 1 375.41 21.379 Q 374.883 21.152 374.495 20.764 Q 374.106 20.376 373.879 19.849 A 2.822 2.822 0 0 1 373.652 18.721 L 373.652 8.892 A 2.822 2.822 0 0 1 373.879 7.764 Q 374.106 7.236 374.495 6.848 Q 374.883 6.46 375.41 6.233 A 2.786 2.786 0 0 1 376.523 6.006 L 383.965 6.006 A 2.822 2.822 0 0 1 385.093 6.233 Q 385.62 6.46 386.008 6.848 Q 386.396 7.236 386.624 7.764 A 2.822 2.822 0 0 1 386.851 8.892 L 386.851 11.528 L 383.965 11.528 L 383.965 8.892 Z M 576.929 8.892 L 569.487 8.892 L 569.487 18.721 L 576.929 18.721 L 576.929 16.084 L 579.814 16.084 L 579.814 18.721 A 2.822 2.822 0 0 1 579.587 19.849 Q 579.36 20.376 578.972 20.764 Q 578.584 21.152 578.057 21.379 A 2.822 2.822 0 0 1 576.929 21.606 L 569.487 21.606 A 2.786 2.786 0 0 1 568.374 21.379 Q 567.847 21.152 567.458 20.764 Q 567.07 20.376 566.843 19.849 A 2.822 2.822 0 0 1 566.616 18.721 L 566.616 8.892 A 2.822 2.822 0 0 1 566.843 7.764 Q 567.07 7.236 567.458 6.848 Q 567.847 6.46 568.374 6.233 A 2.786 2.786 0 0 1 569.487 6.006 L 576.929 6.006 A 2.822 2.822 0 0 1 578.057 6.233 Q 578.584 6.46 578.972 6.848 Q 579.36 7.236 579.587 7.764 A 2.822 2.822 0 0 1 579.814 8.892 L 579.814 11.528 L 576.929 11.528 L 576.929 8.892 Z M 646.143 27.905 L 643.271 27.905 L 646.538 20.2 L 640.415 6.006 L 643.447 6.006 L 648.003 16.743 L 652.559 6.006 L 655.591 6.006 L 646.143 27.905 Z M 74.37 18.721 L 74.37 14.795 Q 74.37 14.194 74.597 13.674 Q 74.824 13.154 75.212 12.759 Q 75.601 12.363 76.128 12.136 A 2.786 2.786 0 0 1 77.241 11.909 L 84.683 11.909 L 84.683 8.892 L 75.264 8.892 L 75.264 6.006 L 84.683 6.006 A 2.822 2.822 0 0 1 85.811 6.233 Q 86.338 6.46 86.726 6.848 Q 87.114 7.236 87.341 7.764 A 2.822 2.822 0 0 1 87.568 8.892 L 87.568 21.606 L 84.683 21.606 L 84.683 18.97 A 2.693 2.693 0 0 1 84.39 19.995 Q 84.141 20.479 83.752 20.837 Q 83.364 21.196 82.866 21.401 A 2.743 2.743 0 0 1 81.812 21.606 L 77.241 21.606 A 2.786 2.786 0 0 1 76.128 21.379 Q 75.601 21.152 75.212 20.764 Q 74.824 20.376 74.597 19.849 A 2.822 2.822 0 0 1 74.37 18.721 Z M 199.233 18.721 L 199.233 14.795 Q 199.233 14.194 199.46 13.674 Q 199.688 13.154 200.076 12.759 Q 200.464 12.363 200.991 12.136 A 2.786 2.786 0 0 1 202.104 11.909 L 209.546 11.909 L 209.546 8.892 L 200.127 8.892 L 200.127 6.006 L 209.546 6.006 A 2.822 2.822 0 0 1 210.674 6.233 Q 211.201 6.46 211.589 6.848 Q 211.978 7.236 212.205 7.764 A 2.822 2.822 0 0 1 212.432 8.892 L 212.432 21.606 L 209.546 21.606 L 209.546 18.97 A 2.693 2.693 0 0 1 209.253 19.995 Q 209.004 20.479 208.616 20.837 Q 208.228 21.196 207.729 21.401 A 2.743 2.743 0 0 1 206.675 21.606 L 202.104 21.606 A 2.786 2.786 0 0 1 200.991 21.379 Q 200.464 21.152 200.076 20.764 Q 199.688 20.376 199.46 19.849 A 2.822 2.822 0 0 1 199.233 18.721 Z M 249.155 18.721 L 249.155 14.795 Q 249.155 14.194 249.382 13.674 Q 249.609 13.154 249.998 12.759 Q 250.386 12.363 250.913 12.136 A 2.786 2.786 0 0 1 252.026 11.909 L 259.468 11.909 L 259.468 8.892 L 250.049 8.892 L 250.049 6.006 L 259.468 6.006 A 2.822 2.822 0 0 1 260.596 6.233 Q 261.123 6.46 261.511 6.848 Q 261.899 7.236 262.126 7.764 A 2.822 2.822 0 0 1 262.354 8.892 L 262.354 21.606 L 259.468 21.606 L 259.468 18.97 A 2.693 2.693 0 0 1 259.175 19.995 Q 258.926 20.479 258.538 20.837 Q 258.149 21.196 257.651 21.401 A 2.743 2.743 0 0 1 256.597 21.606 L 252.026 21.606 A 2.786 2.786 0 0 1 250.913 21.379 Q 250.386 21.152 249.998 20.764 Q 249.609 20.376 249.382 19.849 A 2.822 2.822 0 0 1 249.155 18.721 Z M 309.448 18.721 L 309.448 14.795 Q 309.448 14.194 309.675 13.674 Q 309.902 13.154 310.291 12.759 Q 310.679 12.363 311.206 12.136 A 2.786 2.786 0 0 1 312.319 11.909 L 319.761 11.909 L 319.761 8.892 L 310.342 8.892 L 310.342 6.006 L 319.761 6.006 A 2.822 2.822 0 0 1 320.889 6.233 Q 321.416 6.46 321.804 6.848 Q 322.192 7.236 322.419 7.764 A 2.822 2.822 0 0 1 322.646 8.892 L 322.646 21.606 L 319.761 21.606 L 319.761 18.97 A 2.693 2.693 0 0 1 319.468 19.995 Q 319.219 20.479 318.831 20.837 Q 318.442 21.196 317.944 21.401 A 2.743 2.743 0 0 1 316.89 21.606 L 312.319 21.606 A 2.786 2.786 0 0 1 311.206 21.379 Q 310.679 21.152 310.291 20.764 Q 309.902 20.376 309.675 19.849 A 2.822 2.822 0 0 1 309.448 18.721 Z M 295.649 8.892 L 295.649 15.278 L 285.322 15.278 L 285.322 18.721 L 295.649 18.721 L 295.649 21.606 L 285.322 21.606 A 2.786 2.786 0 0 1 284.209 21.379 Q 283.682 21.152 283.293 20.764 Q 282.905 20.376 282.678 19.849 A 2.822 2.822 0 0 1 282.451 18.721 L 282.451 8.892 A 2.822 2.822 0 0 1 282.678 7.764 Q 282.905 7.236 283.293 6.848 Q 283.682 6.46 284.209 6.233 A 2.786 2.786 0 0 1 285.322 6.006 L 292.764 6.006 A 2.822 2.822 0 0 1 293.892 6.233 Q 294.419 6.46 294.807 6.848 Q 295.195 7.236 295.422 7.764 A 2.822 2.822 0 0 1 295.649 8.892 Z M 502.72 8.892 L 502.72 15.278 L 492.393 15.278 L 492.393 18.721 L 502.72 18.721 L 502.72 21.606 L 492.393 21.606 A 2.786 2.786 0 0 1 491.279 21.379 Q 490.752 21.152 490.364 20.764 Q 489.976 20.376 489.749 19.849 A 2.822 2.822 0 0 1 489.521 18.721 L 489.521 8.892 A 2.822 2.822 0 0 1 489.749 7.764 Q 489.976 7.236 490.364 6.848 Q 490.752 6.46 491.279 6.233 A 2.786 2.786 0 0 1 492.393 6.006 L 499.834 6.006 A 2.822 2.822 0 0 1 500.962 6.233 Q 501.489 6.46 501.877 6.848 Q 502.266 7.236 502.493 7.764 A 2.822 2.822 0 0 1 502.72 8.892 Z M 561.812 8.892 L 561.812 15.278 L 551.484 15.278 L 551.484 18.721 L 561.812 18.721 L 561.812 21.606 L 551.484 21.606 A 2.786 2.786 0 0 1 550.371 21.379 Q 549.844 21.152 549.456 20.764 Q 549.067 20.376 548.84 19.849 A 2.822 2.822 0 0 1 548.613 18.721 L 548.613 8.892 A 2.822 2.822 0 0 1 548.84 7.764 Q 549.067 7.236 549.456 6.848 Q 549.844 6.46 550.371 6.233 A 2.786 2.786 0 0 1 551.484 6.006 L 558.926 6.006 A 2.822 2.822 0 0 1 560.054 6.233 Q 560.581 6.46 560.969 6.848 Q 561.357 7.236 561.584 7.764 A 2.822 2.822 0 0 1 561.812 8.892 Z M 146.968 8.892 L 146.968 6.006 L 150.776 6.006 L 150.776 1.201 L 153.662 1.201 L 153.662 6.006 L 158.789 6.006 L 158.789 8.892 L 153.662 8.892 L 153.662 18.721 L 158.789 18.721 L 158.789 21.606 L 153.662 21.606 A 2.786 2.786 0 0 1 152.549 21.379 Q 152.021 21.152 151.626 20.764 Q 151.23 20.376 151.003 19.849 A 2.822 2.822 0 0 1 150.776 18.721 L 150.776 8.892 L 146.968 8.892 Z M 472.896 8.892 L 472.896 6.006 L 476.704 6.006 L 476.704 1.201 L 479.59 1.201 L 479.59 6.006 L 484.717 6.006 L 484.717 8.892 L 479.59 8.892 L 479.59 18.721 L 484.717 18.721 L 484.717 21.606 L 479.59 21.606 A 2.786 2.786 0 0 1 478.477 21.379 Q 477.949 21.152 477.554 20.764 Q 477.158 20.376 476.931 19.849 A 2.822 2.822 0 0 1 476.704 18.721 L 476.704 8.892 L 472.896 8.892 Z M 625.591 8.892 L 625.591 6.006 L 629.399 6.006 L 629.399 1.201 L 632.285 1.201 L 632.285 6.006 L 637.412 6.006 L 637.412 8.892 L 632.285 8.892 L 632.285 18.721 L 637.412 18.721 L 637.412 21.606 L 632.285 21.606 A 2.786 2.786 0 0 1 631.172 21.379 Q 630.645 21.152 630.249 20.764 Q 629.854 20.376 629.626 19.849 A 2.822 2.822 0 0 1 629.399 18.721 L 629.399 8.892 L 625.591 8.892 Z M 450.396 8.892 L 450.396 18.721 A 2.822 2.822 0 0 1 450.168 19.849 Q 449.941 20.376 449.553 20.764 Q 449.165 21.152 448.638 21.379 A 2.822 2.822 0 0 1 447.51 21.606 L 439.468 21.606 L 439.468 27.905 L 436.597 27.905 L 436.597 6.006 L 439.468 6.006 L 439.468 8.643 A 2.655 2.655 0 0 1 439.761 7.61 Q 440.01 7.134 440.391 6.775 A 2.83 2.83 0 0 1 441.277 6.211 A 2.836 2.836 0 0 1 442.354 6.006 L 447.51 6.006 A 2.822 2.822 0 0 1 448.638 6.233 Q 449.165 6.46 449.553 6.848 Q 449.941 7.236 450.168 7.764 A 2.822 2.822 0 0 1 450.396 8.892 Z M 16.597 15.454 L 16.597 16.509 A 7.339 7.339 0 0 1 16.344 18.526 Q 15.462 21.606 11.499 21.606 L 0 21.606 L 0 0.601 L 10.898 0.601 Q 14.944 0.601 15.779 3.82 A 7.553 7.553 0 0 1 15.996 5.713 L 15.996 6.094 A 9.206 9.206 0 0 1 15.929 7.235 Q 15.802 8.251 15.432 8.987 A 3.541 3.541 0 0 1 13.682 10.649 A 4.291 4.291 0 0 1 14.883 11.235 A 3.431 3.431 0 0 1 15.757 12.136 A 3.923 3.923 0 0 1 15.806 12.209 A 4.28 4.28 0 0 1 16.196 12.989 A 5.525 5.525 0 0 1 16.392 13.608 Q 16.59 14.389 16.596 15.389 A 10.431 10.431 0 0 1 16.597 15.454 Z M 346.055 18.721 L 346.055 8.892 A 2.822 2.822 0 0 1 346.282 7.764 Q 346.509 7.236 346.897 6.848 Q 347.285 6.46 347.813 6.233 A 2.786 2.786 0 0 1 348.926 6.006 L 356.968 6.006 L 356.968 0 L 359.854 0 L 359.854 21.606 L 356.968 21.606 L 356.968 18.97 A 2.693 2.693 0 0 1 356.675 19.995 Q 356.426 20.479 356.038 20.837 Q 355.649 21.196 355.151 21.401 A 2.743 2.743 0 0 1 354.097 21.606 L 348.926 21.606 A 2.786 2.786 0 0 1 347.812 21.379 Q 347.285 21.152 346.897 20.764 Q 346.509 20.376 346.282 19.849 A 2.822 2.822 0 0 1 346.055 18.721 Z M 106.172 8.892 L 106.172 18.721 A 2.822 2.822 0 0 1 105.945 19.849 Q 105.718 20.376 105.33 20.764 Q 104.941 21.152 104.414 21.379 A 2.822 2.822 0 0 1 103.286 21.606 L 95.244 21.606 A 2.786 2.786 0 0 1 94.131 21.379 Q 93.604 21.152 93.215 20.764 Q 92.827 20.376 92.6 19.849 A 2.822 2.822 0 0 1 92.373 18.721 L 92.373 0 L 95.244 0 L 95.244 8.76 A 2.886 2.886 0 0 1 95.508 7.683 A 2.9 2.9 0 0 1 96.13 6.804 Q 96.519 6.431 97.031 6.218 A 2.837 2.837 0 0 1 98.112 6.006 A 3.239 3.239 0 0 1 98.13 6.006 L 103.286 6.006 A 2.822 2.822 0 0 1 104.414 6.233 Q 104.941 6.46 105.33 6.848 Q 105.718 7.236 105.945 7.764 A 2.822 2.822 0 0 1 106.172 8.892 Z M 275.977 8.892 L 270.029 8.892 L 270.029 21.606 L 267.158 21.606 L 267.158 6.006 L 270.029 6.006 L 270.029 8.76 A 2.886 2.886 0 0 1 270.293 7.683 A 2.9 2.9 0 0 1 270.916 6.804 Q 271.304 6.431 271.816 6.218 A 2.837 2.837 0 0 1 272.897 6.006 A 3.239 3.239 0 0 1 272.915 6.006 L 275.977 6.006 Q 276.577 6.006 277.097 6.233 Q 277.617 6.46 278.013 6.848 Q 278.408 7.236 278.635 7.764 A 2.822 2.822 0 0 1 278.862 8.892 L 278.862 11.528 L 275.977 11.528 L 275.977 8.892 Z M 516.343 8.892 L 510.396 8.892 L 510.396 21.606 L 507.524 21.606 L 507.524 6.006 L 510.396 6.006 L 510.396 8.76 A 2.886 2.886 0 0 1 510.659 7.683 A 2.9 2.9 0 0 1 511.282 6.804 Q 511.67 6.431 512.183 6.218 A 2.837 2.837 0 0 1 513.263 6.006 A 3.239 3.239 0 0 1 513.281 6.006 L 516.343 6.006 Q 516.943 6.006 517.463 6.233 Q 517.983 6.46 518.379 6.848 Q 518.774 7.236 519.001 7.764 A 2.822 2.822 0 0 1 519.229 8.892 L 519.229 11.528 L 516.343 11.528 L 516.343 8.892 Z M 612.041 8.892 L 606.094 8.892 L 606.094 21.606 L 603.223 21.606 L 603.223 6.006 L 606.094 6.006 L 606.094 8.76 A 2.886 2.886 0 0 1 606.357 7.683 A 2.9 2.9 0 0 1 606.98 6.804 Q 607.368 6.431 607.881 6.218 A 2.837 2.837 0 0 1 608.961 6.006 A 3.239 3.239 0 0 1 608.979 6.006 L 612.041 6.006 Q 612.642 6.006 613.162 6.233 Q 613.682 6.46 614.077 6.848 Q 614.473 7.236 614.7 7.764 A 2.822 2.822 0 0 1 614.927 8.892 L 614.927 11.528 L 612.041 11.528 L 612.041 8.892 Z M 41.968 8.892 L 41.968 18.721 A 2.822 2.822 0 0 1 41.741 19.849 Q 41.514 20.376 41.125 20.764 Q 40.737 21.152 40.217 21.379 A 2.76 2.76 0 0 1 39.134 21.606 A 3.159 3.159 0 0 1 39.097 21.606 L 31.348 21.606 A 2.786 2.786 0 0 1 30.234 21.379 Q 29.707 21.152 29.319 20.764 Q 28.931 20.376 28.704 19.849 A 2.822 2.822 0 0 1 28.477 18.721 L 28.477 8.892 A 2.822 2.822 0 0 1 28.704 7.764 Q 28.931 7.236 29.319 6.848 Q 29.707 6.46 30.234 6.233 A 2.786 2.786 0 0 1 31.348 6.006 L 39.097 6.006 Q 39.697 6.006 40.217 6.233 A 2.928 2.928 0 0 1 41.125 6.848 Q 41.514 7.236 41.741 7.764 A 2.822 2.822 0 0 1 41.968 8.892 Z M 124.468 8.892 L 124.468 18.721 A 2.822 2.822 0 0 1 124.241 19.849 Q 124.014 20.376 123.625 20.764 Q 123.237 21.152 122.717 21.379 A 2.76 2.76 0 0 1 121.634 21.606 A 3.159 3.159 0 0 1 121.597 21.606 L 113.848 21.606 A 2.786 2.786 0 0 1 112.734 21.379 Q 112.207 21.152 111.819 20.764 Q 111.431 20.376 111.204 19.849 A 2.822 2.822 0 0 1 110.977 18.721 L 110.977 8.892 A 2.822 2.822 0 0 1 111.204 7.764 Q 111.431 7.236 111.819 6.848 Q 112.207 6.46 112.734 6.233 A 2.786 2.786 0 0 1 113.848 6.006 L 121.597 6.006 Q 122.197 6.006 122.717 6.233 A 2.928 2.928 0 0 1 123.625 6.848 Q 124.014 7.236 124.241 7.764 A 2.822 2.822 0 0 1 124.468 8.892 Z M 405.146 8.892 L 405.146 18.721 A 2.822 2.822 0 0 1 404.919 19.849 Q 404.692 20.376 404.304 20.764 Q 403.916 21.152 403.396 21.379 A 2.76 2.76 0 0 1 402.313 21.606 A 3.159 3.159 0 0 1 402.275 21.606 L 394.526 21.606 A 2.786 2.786 0 0 1 393.413 21.379 Q 392.886 21.152 392.498 20.764 Q 392.109 20.376 391.882 19.849 A 2.822 2.822 0 0 1 391.655 18.721 L 391.655 8.892 A 2.822 2.822 0 0 1 391.882 7.764 Q 392.109 7.236 392.498 6.848 Q 392.886 6.46 393.413 6.233 A 2.786 2.786 0 0 1 394.526 6.006 L 402.275 6.006 Q 402.876 6.006 403.396 6.233 A 2.928 2.928 0 0 1 404.304 6.848 Q 404.692 7.236 404.919 7.764 A 2.822 2.822 0 0 1 405.146 8.892 Z M 20.801 0 L 23.672 0 L 23.672 21.606 L 20.801 21.606 L 20.801 0 Z M 217.236 0 L 220.107 0 L 220.107 21.606 L 217.236 21.606 L 217.236 0 Z M 618.662 6.006 L 621.548 6.006 L 621.548 21.606 L 618.662 21.606 L 618.662 6.006 Z M 103.286 8.892 L 95.244 8.892 L 95.244 18.721 L 103.286 18.721 L 103.286 8.892 Z M 348.926 8.892 L 348.926 18.721 L 356.968 18.721 L 356.968 8.892 L 348.926 8.892 Z M 439.468 18.721 L 447.51 18.721 L 447.51 8.892 L 439.468 8.892 L 439.468 18.721 Z M 39.097 8.892 L 31.348 8.892 L 31.348 18.721 L 39.097 18.721 L 39.097 8.892 Z M 121.597 8.892 L 113.848 8.892 L 113.848 18.721 L 121.597 18.721 L 121.597 8.892 Z M 402.275 8.892 L 394.526 8.892 L 394.526 18.721 L 402.275 18.721 L 402.275 8.892 Z M 49.644 18.12 L 57.686 18.12 L 57.686 8.892 L 49.644 8.892 L 49.644 18.12 Z M 11.411 12.451 L 2.944 12.451 L 2.944 18.662 L 11.411 18.662 A 3.993 3.993 0 0 0 12.026 18.618 Q 12.746 18.506 13.125 18.105 Q 13.514 17.695 13.616 16.941 A 4.326 4.326 0 0 0 13.652 16.362 L 13.652 14.736 A 4.328 4.328 0 0 0 13.611 14.113 Q 13.504 13.383 13.125 12.993 A 1.567 1.567 0 0 0 12.55 12.627 Q 12.305 12.534 11.998 12.49 A 4.148 4.148 0 0 0 11.411 12.451 Z M 10.811 3.545 L 2.944 3.545 L 2.944 9.521 L 11.016 9.521 A 3.513 3.513 0 0 0 11.592 9.454 Q 12.237 9.319 12.576 8.928 A 1.69 1.69 0 0 0 12.884 8.384 Q 12.973 8.135 13.015 7.826 A 4.404 4.404 0 0 0 13.052 7.236 L 13.052 5.859 A 4.353 4.353 0 0 0 13.01 5.235 Q 12.903 4.502 12.524 4.102 A 1.569 1.569 0 0 0 11.937 3.721 Q 11.682 3.623 11.364 3.58 A 4.098 4.098 0 0 0 10.811 3.545 Z M 77.241 14.795 L 77.241 18.721 L 84.683 18.721 L 84.683 14.795 L 77.241 14.795 Z M 202.104 14.795 L 202.104 18.721 L 209.546 18.721 L 209.546 14.795 L 202.104 14.795 Z M 252.026 14.795 L 252.026 18.721 L 259.468 18.721 L 259.468 14.795 L 252.026 14.795 Z M 312.319 14.795 L 312.319 18.721 L 319.761 18.721 L 319.761 14.795 L 312.319 14.795 Z M 292.764 8.892 L 285.322 8.892 L 285.322 12.393 L 292.764 12.393 L 292.764 8.892 Z M 499.834 8.892 L 492.393 8.892 L 492.393 12.393 L 499.834 12.393 L 499.834 8.892 Z M 558.926 8.892 L 551.484 8.892 L 551.484 12.393 L 558.926 12.393 L 558.926 8.892 Z M 658.594 21.606 L 658.594 17.227 L 662.974 17.227 L 662.974 21.606 L 658.594 21.606 Z M 618.516 3.003 L 618.516 0 L 621.694 0 L 621.694 3.003 L 618.516 3.003 Z" vector-effect="non-scaling-stroke"/></g></svg>