<svg width="608.31" height="28.2" viewBox="0 0 608.31 28.2" xmlns="http://www.w3.org/2000/svg"><g id="svgGroup" stroke-linecap="round" fill-rule="evenodd" font-size="9pt" stroke="#000000" stroke-width="0.25mm" fill="#000" style="stroke:#000000;stroke-width:0.25mm;fill:#000"><path d="M 169.56 22.5 L 164.82 22.5 L 164.82 21.48 L 166.14 21.48 L 166.14 7.86 L 164.52 7.86 L 164.52 7.26 L 166.32 6.81 L 167.52 6 L 168.09 6 L 168.09 8.13 L 168.18 8.13 A 2.985 2.985 0 0 1 168.479 7.521 Q 168.65 7.249 168.892 6.972 A 5.957 5.957 0 0 1 169.125 6.72 A 2.316 2.316 0 0 1 170.802 6 A 2.858 2.858 0 0 1 170.85 6 A 1.987 1.987 0 0 1 171.52 6.109 A 1.724 1.724 0 0 1 172.185 6.54 A 1.862 1.862 0 0 1 172.589 7.195 Q 172.691 7.468 172.738 7.802 A 4.01 4.01 0 0 1 172.77 8.13 L 172.86 8.13 A 3.462 3.462 0 0 1 173.191 7.499 Q 173.443 7.114 173.82 6.72 A 2.265 2.265 0 0 1 175.467 6.001 A 2.847 2.847 0 0 1 175.53 6 A 2.247 2.247 0 0 1 176.141 6.079 A 1.624 1.624 0 0 1 176.97 6.615 A 1.993 1.993 0 0 1 177.325 7.28 Q 177.48 7.756 177.48 8.4 L 177.48 21.48 L 178.95 21.48 L 178.95 22.5 L 175.53 22.5 L 175.53 8.49 Q 175.53 7.502 174.787 7.37 A 1.413 1.413 0 0 0 174.54 7.35 A 1.281 1.281 0 0 0 173.971 7.475 A 1.284 1.284 0 0 0 173.625 7.725 A 2.479 2.479 0 0 0 173.155 8.389 A 3.022 3.022 0 0 0 173.04 8.655 A 4.961 4.961 0 0 0 172.851 9.265 A 3.993 3.993 0 0 0 172.77 9.72 L 172.77 21.48 L 174.24 21.48 L 174.24 22.5 L 170.85 22.5 L 170.85 8.49 A 1.738 1.738 0 0 0 170.799 8.047 Q 170.649 7.48 170.063 7.374 A 1.647 1.647 0 0 0 169.77 7.35 A 1.158 1.158 0 0 0 168.923 7.702 A 1.447 1.447 0 0 0 168.9 7.725 A 2.401 2.401 0 0 0 168.468 8.357 A 2.97 2.97 0 0 0 168.345 8.655 A 5.409 5.409 0 0 0 168.161 9.298 A 4.413 4.413 0 0 0 168.09 9.72 L 168.09 21.48 L 169.56 21.48 L 169.56 22.5 Z M 379.56 22.5 L 374.82 22.5 L 374.82 21.48 L 376.14 21.48 L 376.14 7.86 L 374.52 7.86 L 374.52 7.26 L 376.32 6.81 L 377.52 6 L 378.09 6 L 378.09 8.13 L 378.18 8.13 A 2.985 2.985 0 0 1 378.479 7.521 Q 378.65 7.249 378.892 6.972 A 5.957 5.957 0 0 1 379.125 6.72 A 2.316 2.316 0 0 1 380.802 6 A 2.858 2.858 0 0 1 380.85 6 A 1.987 1.987 0 0 1 381.52 6.109 A 1.724 1.724 0 0 1 382.185 6.54 A 1.862 1.862 0 0 1 382.589 7.195 Q 382.691 7.468 382.738 7.802 A 4.01 4.01 0 0 1 382.77 8.13 L 382.86 8.13 A 3.462 3.462 0 0 1 383.191 7.499 Q 383.443 7.114 383.82 6.72 A 2.265 2.265 0 0 1 385.467 6.001 A 2.847 2.847 0 0 1 385.53 6 A 2.247 2.247 0 0 1 386.141 6.079 A 1.624 1.624 0 0 1 386.97 6.615 A 1.993 1.993 0 0 1 387.325 7.28 Q 387.48 7.756 387.48 8.4 L 387.48 21.48 L 388.95 21.48 L 388.95 22.5 L 385.53 22.5 L 385.53 8.49 Q 385.53 7.502 384.787 7.37 A 1.413 1.413 0 0 0 384.54 7.35 A 1.281 1.281 0 0 0 383.971 7.475 A 1.284 1.284 0 0 0 383.625 7.725 A 2.479 2.479 0 0 0 383.155 8.389 A 3.022 3.022 0 0 0 383.04 8.655 A 4.961 4.961 0 0 0 382.851 9.265 A 3.993 3.993 0 0 0 382.77 9.72 L 382.77 21.48 L 384.24 21.48 L 384.24 22.5 L 380.85 22.5 L 380.85 8.49 A 1.738 1.738 0 0 0 380.799 8.047 Q 380.649 7.48 380.063 7.374 A 1.647 1.647 0 0 0 379.77 7.35 A 1.158 1.158 0 0 0 378.923 7.702 A 1.447 1.447 0 0 0 378.9 7.725 A 2.401 2.401 0 0 0 378.468 8.357 A 2.97 2.97 0 0 0 378.345 8.655 A 5.409 5.409 0 0 0 378.161 9.298 A 4.413 4.413 0 0 0 378.09 9.72 L 378.09 21.48 L 379.56 21.48 L 379.56 22.5 Z M 215.31 22.5 L 214.26 22.5 L 211.68 7.32 L 209.97 7.32 L 209.97 6.3 L 215.07 6.3 L 215.07 7.32 L 213.54 7.32 L 215.31 17.82 L 217.08 7.32 L 215.88 7.32 L 215.88 6.3 L 219.18 6.3 L 219.18 7.32 L 218.1 7.32 L 219.87 17.82 L 221.64 7.32 L 220.14 7.32 L 220.14 6.3 L 223.53 6.3 L 223.53 7.32 L 222.45 7.32 L 219.87 22.5 L 218.94 22.5 L 217.05 12.3 L 215.31 22.5 Z M 586.41 26.61 L 586.59 27.27 Q 588.18 27.39 589.5 26.115 Q 590.697 24.959 591.647 22.385 A 22.34 22.34 0 0 0 591.84 21.84 L 586.89 7.32 L 584.52 7.32 L 584.52 6.3 L 591.9 6.3 L 591.9 7.32 L 588.9 7.32 L 592.83 18.87 L 596.64 7.32 L 594.57 7.32 L 594.57 6.3 L 599.61 6.3 L 599.61 7.32 L 597.6 7.32 L 592.77 21.96 Q 592.26 23.49 591.495 24.93 A 7.084 7.084 0 0 1 590.016 26.86 A 6.67 6.67 0 0 1 589.5 27.285 A 4.468 4.468 0 0 1 587.809 28.046 Q 587.179 28.19 586.448 28.199 A 7.948 7.948 0 0 1 586.35 28.2 Q 584.88 28.2 583.965 27.615 Q 583.05 27.03 583.05 26.07 Q 583.05 25.47 583.455 25.005 A 1.315 1.315 0 0 1 584.195 24.581 A 1.989 1.989 0 0 1 584.61 24.54 A 2.016 2.016 0 0 1 585 24.575 Q 585.226 24.62 585.4 24.721 A 1.033 1.033 0 0 1 585.615 24.885 Q 585.96 25.23 586.14 25.71 A 7.243 7.243 0 0 1 586.306 26.203 A 5.552 5.552 0 0 1 586.41 26.61 Z M 307.11 22.5 L 299.58 22.5 L 299.58 21.66 L 302.1 21.42 L 302.1 7.86 L 299.04 7.86 L 299.04 7.14 L 302.1 6.75 L 303.42 6 L 304.14 6 L 304.14 8.43 L 304.23 8.43 A 3.423 3.423 0 0 1 304.532 7.895 Q 304.697 7.652 304.916 7.405 A 5.879 5.879 0 0 1 304.98 7.335 A 4.072 4.072 0 0 1 305.755 6.685 A 5.14 5.14 0 0 1 306.27 6.39 A 3.66 3.66 0 0 1 307.393 6.047 A 4.748 4.748 0 0 1 308.07 6 A 3.807 3.807 0 0 1 309.076 6.126 A 2.766 2.766 0 0 1 310.395 6.915 A 2.916 2.916 0 0 1 311.03 8.023 Q 311.25 8.701 311.25 9.6 L 311.25 21.48 L 313.77 21.48 L 313.77 22.5 L 309.21 22.5 L 309.21 9.78 A 3.991 3.991 0 0 0 309.117 8.874 Q 308.828 7.639 307.645 7.425 A 3.006 3.006 0 0 0 307.11 7.38 Q 306.27 7.38 305.655 7.77 Q 305.04 8.16 304.665 8.745 Q 304.296 9.32 304.145 9.852 A 3.083 3.083 0 0 0 304.14 9.87 L 304.14 21.42 L 307.11 21.66 L 307.11 22.5 Z M 483.42 18.51 L 483.18 18.51 L 483.18 22.5 L 482.22 22.5 L 482.22 15.48 L 483.78 15.48 L 483.78 15.84 A 6.256 6.256 0 0 0 483.783 16.014 Q 483.791 16.313 483.825 16.83 Q 483.87 17.52 484.08 18.36 Q 484.29 19.2 484.725 19.98 Q 485.16 20.76 485.94 21.27 Q 486.72 21.78 487.92 21.78 A 4.236 4.236 0 0 0 488.701 21.713 Q 489.145 21.629 489.493 21.443 A 2.115 2.115 0 0 0 489.975 21.09 Q 490.68 20.4 490.68 19.29 Q 490.68 18.21 490.11 17.415 A 5.589 5.589 0 0 0 489.073 16.326 A 6.704 6.704 0 0 0 488.64 16.005 A 35.96 35.96 0 0 0 487.231 15.091 A 40.005 40.005 0 0 0 486.735 14.79 Q 485.73 14.19 484.83 13.515 A 6.136 6.136 0 0 1 483.585 12.279 A 5.681 5.681 0 0 1 483.36 11.955 A 3.542 3.542 0 0 1 482.846 10.575 A 4.686 4.686 0 0 1 482.79 9.84 A 4.157 4.157 0 0 1 483.002 8.485 A 3.539 3.539 0 0 1 483.9 7.08 A 3.709 3.709 0 0 1 485.744 6.116 A 5.452 5.452 0 0 1 486.9 6 A 5.889 5.889 0 0 1 487.763 6.059 Q 488.207 6.125 488.571 6.264 A 2.761 2.761 0 0 1 489.09 6.525 A 4.25 4.25 0 0 1 489.76 7.057 A 3.245 3.245 0 0 1 490.305 7.755 A 7.234 7.234 0 0 1 490.573 8.265 Q 490.694 8.52 490.776 8.755 A 3.679 3.679 0 0 1 490.86 9.03 L 491.1 9.03 L 491.1 6.3 L 492.06 6.3 L 492.06 12.12 L 490.8 12.12 L 490.8 12.03 A 7.624 7.624 0 0 0 490.722 10.967 A 9.299 9.299 0 0 0 490.62 10.38 Q 490.44 9.51 490.005 8.73 Q 489.57 7.95 488.835 7.47 A 2.833 2.833 0 0 0 487.897 7.084 Q 487.519 6.999 487.081 6.991 A 5.027 5.027 0 0 0 486.99 6.99 Q 486.223 6.99 485.725 7.212 A 1.489 1.489 0 0 0 485.1 7.71 A 2.89 2.89 0 0 0 484.728 8.416 A 2.365 2.365 0 0 0 484.59 9.21 Q 484.59 10.17 485.16 10.905 A 5.85 5.85 0 0 0 485.977 11.756 A 7.482 7.482 0 0 0 486.63 12.255 A 35.96 35.96 0 0 0 488.039 13.169 A 40.005 40.005 0 0 0 488.535 13.47 Q 489.54 14.07 490.44 14.775 A 6.309 6.309 0 0 1 491.781 16.197 A 5.943 5.943 0 0 1 491.91 16.395 A 3.733 3.733 0 0 1 492.423 17.807 A 4.924 4.924 0 0 1 492.48 18.57 A 4.22 4.22 0 0 1 492.222 20.058 A 3.931 3.931 0 0 1 491.895 20.73 Q 491.31 21.69 490.305 22.245 A 4.456 4.456 0 0 1 488.637 22.765 A 5.542 5.542 0 0 1 488.01 22.8 A 5.356 5.356 0 0 1 486.918 22.695 Q 486.215 22.548 485.667 22.199 A 3.305 3.305 0 0 1 485.535 22.11 A 4.71 4.71 0 0 1 484.295 20.84 A 4.489 4.489 0 0 1 484.05 20.415 A 7.182 7.182 0 0 1 483.663 19.511 Q 483.485 18.995 483.42 18.51 Z M 129.21 6.75 L 130.53 6 L 131.25 6 L 131.25 20.94 L 133.38 20.94 L 133.38 21.66 L 131.25 22.05 L 129.93 22.8 L 129.21 22.8 L 129.21 19.95 L 129.12 19.95 A 3.97 3.97 0 0 1 128.871 20.509 Q 128.732 20.769 128.545 21.042 A 7.141 7.141 0 0 1 128.415 21.225 Q 127.92 21.9 127.17 22.35 Q 126.42 22.8 125.43 22.8 Q 123.99 22.8 123.045 21.87 A 2.815 2.815 0 0 1 122.387 20.817 Q 122.1 20.037 122.1 18.93 L 122.1 7.86 L 119.04 7.86 L 119.04 7.14 L 122.1 6.75 L 123.42 6 L 124.14 6 L 124.14 18.87 A 4.613 4.613 0 0 0 124.225 19.801 Q 124.519 21.22 125.823 21.395 A 2.908 2.908 0 0 0 126.21 21.42 A 2.805 2.805 0 0 0 126.958 21.324 A 2.249 2.249 0 0 0 127.695 20.97 Q 128.31 20.52 128.7 19.875 A 4.644 4.644 0 0 0 129.006 19.28 A 3.375 3.375 0 0 0 129.21 18.63 L 129.21 7.86 L 126.15 7.86 L 126.15 7.14 L 129.21 6.75 Z M 414.21 6.75 L 415.53 6 L 416.25 6 L 416.25 20.94 L 418.38 20.94 L 418.38 21.66 L 416.25 22.05 L 414.93 22.8 L 414.21 22.8 L 414.21 19.95 L 414.12 19.95 A 3.97 3.97 0 0 1 413.871 20.509 Q 413.732 20.769 413.545 21.042 A 7.141 7.141 0 0 1 413.415 21.225 Q 412.92 21.9 412.17 22.35 Q 411.42 22.8 410.43 22.8 Q 408.99 22.8 408.045 21.87 A 2.815 2.815 0 0 1 407.387 20.817 Q 407.1 20.037 407.1 18.93 L 407.1 7.86 L 404.04 7.86 L 404.04 7.14 L 407.1 6.75 L 408.42 6 L 409.14 6 L 409.14 18.87 A 4.613 4.613 0 0 0 409.225 19.801 Q 409.519 21.22 410.823 21.395 A 2.908 2.908 0 0 0 411.21 21.42 A 2.805 2.805 0 0 0 411.958 21.324 A 2.249 2.249 0 0 0 412.695 20.97 Q 413.31 20.52 413.7 19.875 A 4.644 4.644 0 0 0 414.006 19.28 A 3.375 3.375 0 0 0 414.21 18.63 L 414.21 7.86 L 411.15 7.86 L 411.15 7.14 L 414.21 6.75 Z M 534.21 6.75 L 535.53 6 L 536.25 6 L 536.25 20.94 L 538.38 20.94 L 538.38 21.66 L 536.25 22.05 L 534.93 22.8 L 534.21 22.8 L 534.21 19.95 L 534.12 19.95 A 3.97 3.97 0 0 1 533.871 20.509 Q 533.732 20.769 533.545 21.042 A 7.141 7.141 0 0 1 533.415 21.225 Q 532.92 21.9 532.17 22.35 Q 531.42 22.8 530.43 22.8 Q 528.99 22.8 528.045 21.87 A 2.815 2.815 0 0 1 527.387 20.817 Q 527.1 20.037 527.1 18.93 L 527.1 7.86 L 524.04 7.86 L 524.04 7.14 L 527.1 6.75 L 528.42 6 L 529.14 6 L 529.14 18.87 A 4.613 4.613 0 0 0 529.225 19.801 Q 529.519 21.22 530.823 21.395 A 2.908 2.908 0 0 0 531.21 21.42 A 2.805 2.805 0 0 0 531.958 21.324 A 2.249 2.249 0 0 0 532.695 20.97 Q 533.31 20.52 533.7 19.875 A 4.644 4.644 0 0 0 534.006 19.28 A 3.375 3.375 0 0 0 534.21 18.63 L 534.21 7.86 L 531.15 7.86 L 531.15 7.14 L 534.21 6.75 Z M 399.93 28.2 L 389.4 28.2 L 389.4 27.18 L 392.97 27.18 L 392.97 7.86 L 389.91 7.86 L 389.91 7.14 L 392.97 6.75 L 394.29 6 L 395.01 6 L 395.01 8.55 L 395.1 8.55 Q 395.325 8.016 395.787 7.468 A 6.079 6.079 0 0 1 395.85 7.395 Q 396.36 6.81 397.11 6.405 A 3.378 3.378 0 0 1 398.353 6.025 A 4.209 4.209 0 0 1 398.82 6 A 3.63 3.63 0 0 1 400.239 6.271 A 3.424 3.424 0 0 1 401.34 7.02 Q 402.295 7.975 402.817 9.589 A 9.621 9.621 0 0 1 402.885 9.81 A 12.26 12.26 0 0 1 403.291 11.803 A 16.891 16.891 0 0 1 403.41 13.86 A 17.135 17.135 0 0 1 403.215 16.495 A 13.811 13.811 0 0 1 402.795 18.36 A 9.483 9.483 0 0 1 402.199 19.879 Q 401.756 20.761 401.155 21.417 A 5.789 5.789 0 0 1 400.98 21.6 Q 399.78 22.8 398.01 22.8 A 4.702 4.702 0 0 1 397.23 22.739 Q 396.624 22.637 396.165 22.365 A 5.458 5.458 0 0 1 395.601 21.985 Q 395.318 21.766 395.105 21.53 A 3.111 3.111 0 0 1 395.01 21.42 L 395.01 27.18 L 399.93 27.18 L 399.93 28.2 Z M 48.39 20.67 L 48.39 20.55 Q 46.89 20.4 46.14 19.71 A 2.222 2.222 0 0 1 45.392 18.095 A 2.713 2.713 0 0 1 45.39 18 A 3.065 3.065 0 0 1 45.467 17.296 A 2.221 2.221 0 0 1 45.855 16.455 A 4.325 4.325 0 0 1 46.646 15.645 A 3.937 3.937 0 0 1 46.92 15.45 Q 47.457 15.101 47.825 14.872 A 25.851 25.851 0 0 1 47.91 14.82 L 48.12 14.7 A 4.571 4.571 0 0 1 47.025 12.975 Q 46.68 12 46.68 11.01 Q 46.68 9.78 47.205 8.64 A 4.525 4.525 0 0 1 48.704 6.845 A 5.416 5.416 0 0 1 48.84 6.75 A 4.155 4.155 0 0 1 50.197 6.165 Q 50.874 6 51.69 6 A 6.321 6.321 0 0 1 52.732 6.082 A 4.935 4.935 0 0 1 53.58 6.3 L 58.11 6.3 L 58.11 7.23 L 55.17 7.23 Q 55.95 7.95 56.325 8.97 A 5.96 5.96 0 0 1 56.691 10.691 A 5.557 5.557 0 0 1 56.7 11.01 Q 56.7 12.21 56.175 13.365 Q 55.65 14.52 54.555 15.27 Q 53.597 15.926 52.122 16.008 A 7.78 7.78 0 0 1 51.69 16.02 A 6.642 6.642 0 0 1 50.721 15.952 A 5.197 5.197 0 0 1 49.95 15.78 Q 49.17 15.54 48.6 15.12 L 48.18 15.36 A 8.025 8.025 0 0 0 47.49 15.845 A 9.395 9.395 0 0 0 47.22 16.065 A 1.33 1.33 0 0 0 46.845 16.559 A 1.359 1.359 0 0 0 46.74 17.1 A 1.308 1.308 0 0 0 46.797 17.496 A 1.005 1.005 0 0 0 47.22 18.045 A 2.783 2.783 0 0 0 48.126 18.427 A 3.271 3.271 0 0 0 48.315 18.465 Q 48.923 18.569 49.311 18.599 A 5.474 5.474 0 0 0 49.32 18.6 L 53.16 18.9 A 6.313 6.313 0 0 1 54.96 19.294 A 5.324 5.324 0 0 1 56.46 20.175 Q 57.81 21.3 57.81 23.25 A 4.513 4.513 0 0 1 57.533 24.849 A 4.141 4.141 0 0 1 56.97 25.875 A 4.961 4.961 0 0 1 55.432 27.215 A 6.415 6.415 0 0 1 54.63 27.6 A 8.126 8.126 0 0 1 52.846 28.077 A 11.127 11.127 0 0 1 51.15 28.2 Q 48.39 28.2 46.83 27.06 A 4.227 4.227 0 0 1 45.91 26.163 A 3.256 3.256 0 0 1 45.27 24.18 Q 45.27 23.13 45.765 22.41 Q 46.26 21.69 46.995 21.255 A 5.999 5.999 0 0 1 47.624 20.929 Q 47.969 20.776 48.297 20.693 A 3.583 3.583 0 0 1 48.39 20.67 Z M 138.15 17.4 L 138.15 7.26 L 134.73 7.26 L 134.73 6.3 L 138.15 6.3 L 139.5 3.09 L 140.19 3.09 L 140.19 6.3 L 148.02 6.3 L 148.02 7.26 L 140.19 7.26 L 140.19 17.25 A 8.229 8.229 0 0 0 140.272 18.451 Q 140.453 19.672 141.03 20.445 Q 141.87 21.57 143.52 21.57 A 4.491 4.491 0 0 0 144.4 21.489 Q 144.922 21.385 145.331 21.147 A 2.547 2.547 0 0 0 145.635 20.94 A 3.42 3.42 0 0 0 146.706 19.466 A 4.161 4.161 0 0 0 146.775 19.275 Q 147.12 18.24 147.12 17.04 L 147.12 16.26 L 148.02 16.26 L 148.02 17.04 Q 148.02 17.88 147.81 18.885 Q 147.6 19.89 147.075 20.775 A 4.007 4.007 0 0 1 145.883 22.034 A 4.872 4.872 0 0 1 145.575 22.23 A 3.863 3.863 0 0 1 144.539 22.639 Q 143.883 22.8 143.07 22.8 A 5.716 5.716 0 0 1 141.427 22.575 A 4.476 4.476 0 0 1 139.515 21.435 A 4.319 4.319 0 0 1 138.47 19.68 Q 138.25 19.002 138.181 18.178 A 9.352 9.352 0 0 1 138.15 17.4 Z M 423.15 17.4 L 423.15 7.26 L 419.73 7.26 L 419.73 6.3 L 423.15 6.3 L 424.5 3.09 L 425.19 3.09 L 425.19 6.3 L 433.02 6.3 L 433.02 7.26 L 425.19 7.26 L 425.19 17.25 A 8.229 8.229 0 0 0 425.272 18.451 Q 425.453 19.672 426.03 20.445 Q 426.87 21.57 428.52 21.57 A 4.491 4.491 0 0 0 429.4 21.489 Q 429.922 21.385 430.331 21.147 A 2.547 2.547 0 0 0 430.635 20.94 A 3.42 3.42 0 0 0 431.706 19.466 A 4.161 4.161 0 0 0 431.775 19.275 Q 432.12 18.24 432.12 17.04 L 432.12 16.26 L 433.02 16.26 L 433.02 17.04 Q 433.02 17.88 432.81 18.885 Q 432.6 19.89 432.075 20.775 A 4.007 4.007 0 0 1 430.883 22.034 A 4.872 4.872 0 0 1 430.575 22.23 A 3.863 3.863 0 0 1 429.539 22.639 Q 428.883 22.8 428.07 22.8 A 5.716 5.716 0 0 1 426.427 22.575 A 4.476 4.476 0 0 1 424.515 21.435 A 4.319 4.319 0 0 1 423.47 19.68 Q 423.25 19.002 423.181 18.178 A 9.352 9.352 0 0 1 423.15 17.4 Z M 573.15 17.4 L 573.15 7.26 L 569.73 7.26 L 569.73 6.3 L 573.15 6.3 L 574.5 3.09 L 575.19 3.09 L 575.19 6.3 L 583.02 6.3 L 583.02 7.26 L 575.19 7.26 L 575.19 17.25 A 8.229 8.229 0 0 0 575.272 18.451 Q 575.453 19.672 576.03 20.445 Q 576.87 21.57 578.52 21.57 A 4.491 4.491 0 0 0 579.4 21.489 Q 579.922 21.385 580.331 21.147 A 2.547 2.547 0 0 0 580.635 20.94 A 3.42 3.42 0 0 0 581.706 19.466 A 4.161 4.161 0 0 0 581.775 19.275 Q 582.12 18.24 582.12 17.04 L 582.12 16.26 L 583.02 16.26 L 583.02 17.04 Q 583.02 17.88 582.81 18.885 Q 582.6 19.89 582.075 20.775 A 4.007 4.007 0 0 1 580.883 22.034 A 4.872 4.872 0 0 1 580.575 22.23 A 3.863 3.863 0 0 1 579.539 22.639 Q 578.883 22.8 578.07 22.8 A 5.716 5.716 0 0 1 576.427 22.575 A 4.476 4.476 0 0 1 574.515 21.435 A 4.319 4.319 0 0 1 573.47 19.68 Q 573.25 19.002 573.181 18.178 A 9.352 9.352 0 0 1 573.15 17.4 Z M 244.95 21.48 L 249.84 21.48 L 249.84 22.5 L 239.31 22.5 L 239.31 21.48 L 242.91 21.48 L 242.91 7.86 L 239.85 7.86 L 239.85 7.14 L 242.91 6.75 L 244.23 6 L 244.95 6 L 244.95 11.28 L 245.04 11.28 L 245.19 10.83 A 10.024 10.024 0 0 1 246.101 8.825 A 8.187 8.187 0 0 1 247.2 7.38 A 4.524 4.524 0 0 1 248.598 6.367 A 4.186 4.186 0 0 1 250.35 6 A 4.254 4.254 0 0 1 251.3 6.101 A 3.2 3.2 0 0 1 252.3 6.51 Q 253.11 7.02 253.11 7.98 A 1.769 1.769 0 0 1 253.065 8.391 A 1.251 1.251 0 0 1 252.81 8.91 Q 252.542 9.232 252.009 9.266 A 2.03 2.03 0 0 1 251.88 9.27 A 1.854 1.854 0 0 1 251.449 9.223 A 1.153 1.153 0 0 1 250.77 8.79 A 10.32 10.32 0 0 1 250.445 8.332 Q 250.294 8.107 250.174 7.897 A 6.404 6.404 0 0 1 250.17 7.89 L 249.72 7.02 Q 248.64 7.02 247.83 7.785 Q 247.032 8.539 246.438 9.759 A 9.573 9.573 0 0 0 246.42 9.795 A 19.098 19.098 0 0 0 245.604 11.772 A 21.835 21.835 0 0 0 245.37 12.48 L 244.95 13.83 L 244.95 21.48 Z M 454.95 21.48 L 459.84 21.48 L 459.84 22.5 L 449.31 22.5 L 449.31 21.48 L 452.91 21.48 L 452.91 7.86 L 449.85 7.86 L 449.85 7.14 L 452.91 6.75 L 454.23 6 L 454.95 6 L 454.95 11.28 L 455.04 11.28 L 455.19 10.83 A 10.024 10.024 0 0 1 456.101 8.825 A 8.187 8.187 0 0 1 457.2 7.38 A 4.524 4.524 0 0 1 458.598 6.367 A 4.186 4.186 0 0 1 460.35 6 A 4.254 4.254 0 0 1 461.3 6.101 A 3.2 3.2 0 0 1 462.3 6.51 Q 463.11 7.02 463.11 7.98 A 1.769 1.769 0 0 1 463.065 8.391 A 1.251 1.251 0 0 1 462.81 8.91 Q 462.542 9.232 462.009 9.266 A 2.03 2.03 0 0 1 461.88 9.27 A 1.854 1.854 0 0 1 461.449 9.223 A 1.153 1.153 0 0 1 460.77 8.79 A 10.32 10.32 0 0 1 460.445 8.332 Q 460.294 8.107 460.174 7.897 A 6.404 6.404 0 0 1 460.17 7.89 L 459.72 7.02 Q 458.64 7.02 457.83 7.785 Q 457.032 8.539 456.438 9.759 A 9.573 9.573 0 0 0 456.42 9.795 A 19.098 19.098 0 0 0 455.604 11.772 A 21.835 21.835 0 0 0 455.37 12.48 L 454.95 13.83 L 454.95 21.48 Z M 544.95 21.48 L 549.84 21.48 L 549.84 22.5 L 539.31 22.5 L 539.31 21.48 L 542.91 21.48 L 542.91 7.86 L 539.85 7.86 L 539.85 7.14 L 542.91 6.75 L 544.23 6 L 544.95 6 L 544.95 11.28 L 545.04 11.28 L 545.19 10.83 A 10.024 10.024 0 0 1 546.101 8.825 A 8.187 8.187 0 0 1 547.2 7.38 A 4.524 4.524 0 0 1 548.598 6.367 A 4.186 4.186 0 0 1 550.35 6 A 4.254 4.254 0 0 1 551.3 6.101 A 3.2 3.2 0 0 1 552.3 6.51 Q 553.11 7.02 553.11 7.98 A 1.769 1.769 0 0 1 553.065 8.391 A 1.251 1.251 0 0 1 552.81 8.91 Q 552.542 9.232 552.009 9.266 A 2.03 2.03 0 0 1 551.88 9.27 A 1.854 1.854 0 0 1 551.449 9.223 A 1.153 1.153 0 0 1 550.77 8.79 A 10.32 10.32 0 0 1 550.445 8.332 Q 550.294 8.107 550.174 7.897 A 6.404 6.404 0 0 1 550.17 7.89 L 549.72 7.02 Q 548.64 7.02 547.83 7.785 Q 547.032 8.539 546.438 9.759 A 9.573 9.573 0 0 0 546.42 9.795 A 19.098 19.098 0 0 0 545.604 11.772 A 21.835 21.835 0 0 0 545.37 12.48 L 544.95 13.83 L 544.95 21.48 Z M 28.35 22.5 L 14.97 22.5 L 14.97 21.48 L 20.64 21.48 L 20.64 1.86 L 16.38 1.86 L 16.38 1.14 L 20.64 0.75 L 21.96 0 L 22.68 0 L 22.68 21.48 L 28.35 21.48 L 28.35 22.5 Z M 208.35 22.5 L 194.97 22.5 L 194.97 21.48 L 200.64 21.48 L 200.64 1.86 L 196.38 1.86 L 196.38 1.14 L 200.64 0.75 L 201.96 0 L 202.68 0 L 202.68 21.48 L 208.35 21.48 L 208.35 22.5 Z M 80.52 14.58 L 83.58 13.17 L 83.58 10.26 A 3.749 3.749 0 0 0 83.46 9.285 A 2.705 2.705 0 0 0 82.65 7.95 A 3.226 3.226 0 0 0 80.822 7.14 A 4.319 4.319 0 0 0 80.31 7.11 A 4.351 4.351 0 0 0 79.371 7.206 A 3.055 3.055 0 0 0 78.18 7.74 A 6.377 6.377 0 0 0 77.684 8.15 Q 77.232 8.567 77.01 8.97 Q 77.579 9.563 77.913 9.953 A 9.571 9.571 0 0 1 78.045 10.11 Q 78.39 10.53 78.39 11.1 A 1.5 1.5 0 0 1 78.153 11.904 A 1.931 1.931 0 0 1 78.045 12.06 A 1.111 1.111 0 0 1 77.371 12.474 A 1.728 1.728 0 0 1 77.01 12.51 A 1.507 1.507 0 0 1 76.555 12.445 A 1.193 1.193 0 0 1 75.975 12.045 A 1.676 1.676 0 0 1 75.624 11.226 A 2.256 2.256 0 0 1 75.6 10.89 A 3.242 3.242 0 0 1 75.681 10.19 Q 75.751 9.873 75.882 9.533 A 5.762 5.762 0 0 1 75.945 9.375 A 5.161 5.161 0 0 1 76.499 8.386 A 6.645 6.645 0 0 1 76.995 7.77 A 5.12 5.12 0 0 1 78.202 6.796 A 6.302 6.302 0 0 1 78.78 6.495 A 5.258 5.258 0 0 1 80.078 6.102 Q 80.664 6 81.33 6 Q 82.92 6 83.865 6.63 A 3.738 3.738 0 0 1 84.797 7.5 A 3.4 3.4 0 0 1 85.215 8.235 Q 85.62 9.21 85.62 10.26 L 85.62 19.98 Q 85.62 21.24 86.49 21.24 A 1.118 1.118 0 0 0 86.943 21.151 Q 87.184 21.046 87.361 20.815 A 1.361 1.361 0 0 0 87.39 20.775 A 3.403 3.403 0 0 0 87.653 20.342 A 2.495 2.495 0 0 0 87.84 19.86 L 88.38 20.04 A 3.639 3.639 0 0 1 88.196 20.749 A 4.783 4.783 0 0 1 87.96 21.285 Q 87.63 21.93 87.075 22.365 A 2.025 2.025 0 0 1 86.099 22.773 A 2.697 2.697 0 0 1 85.71 22.8 A 2.227 2.227 0 0 1 84.869 22.645 A 2.069 2.069 0 0 1 84.195 22.2 Q 83.58 21.6 83.58 20.34 A 3.196 3.196 0 0 1 83.301 20.836 Q 83.095 21.138 82.8 21.45 A 4.492 4.492 0 0 1 81.855 22.204 A 5.362 5.362 0 0 1 81.48 22.41 A 3.66 3.66 0 0 1 80.357 22.753 A 4.748 4.748 0 0 1 79.68 22.8 A 4.366 4.366 0 0 1 78.585 22.67 A 3.066 3.066 0 0 1 77.085 21.795 Q 76.14 20.79 76.14 19.35 A 4.44 4.44 0 0 1 76.249 18.339 A 3.185 3.185 0 0 1 76.815 17.115 A 5.763 5.763 0 0 1 78.384 15.706 A 6.581 6.581 0 0 1 78.51 15.63 Q 79.53 15.03 80.52 14.58 Z M 185.52 14.58 L 188.58 13.17 L 188.58 10.26 A 3.749 3.749 0 0 0 188.46 9.285 A 2.705 2.705 0 0 0 187.65 7.95 A 3.226 3.226 0 0 0 185.822 7.14 A 4.319 4.319 0 0 0 185.31 7.11 A 4.351 4.351 0 0 0 184.371 7.206 A 3.055 3.055 0 0 0 183.18 7.74 A 6.377 6.377 0 0 0 182.684 8.15 Q 182.232 8.567 182.01 8.97 Q 182.579 9.563 182.913 9.953 A 9.571 9.571 0 0 1 183.045 10.11 Q 183.39 10.53 183.39 11.1 A 1.5 1.5 0 0 1 183.153 11.904 A 1.931 1.931 0 0 1 183.045 12.06 A 1.111 1.111 0 0 1 182.371 12.474 A 1.728 1.728 0 0 1 182.01 12.51 A 1.507 1.507 0 0 1 181.555 12.445 A 1.193 1.193 0 0 1 180.975 12.045 A 1.676 1.676 0 0 1 180.624 11.226 A 2.256 2.256 0 0 1 180.6 10.89 A 3.242 3.242 0 0 1 180.681 10.19 Q 180.751 9.873 180.882 9.533 A 5.762 5.762 0 0 1 180.945 9.375 A 5.161 5.161 0 0 1 181.499 8.386 A 6.645 6.645 0 0 1 181.995 7.77 A 5.12 5.12 0 0 1 183.202 6.796 A 6.302 6.302 0 0 1 183.78 6.495 A 5.258 5.258 0 0 1 185.078 6.102 Q 185.664 6 186.33 6 Q 187.92 6 188.865 6.63 A 3.738 3.738 0 0 1 189.797 7.5 A 3.4 3.4 0 0 1 190.215 8.235 Q 190.62 9.21 190.62 10.26 L 190.62 19.98 Q 190.62 21.24 191.49 21.24 A 1.118 1.118 0 0 0 191.943 21.151 Q 192.184 21.046 192.361 20.815 A 1.361 1.361 0 0 0 192.39 20.775 A 3.403 3.403 0 0 0 192.653 20.342 A 2.495 2.495 0 0 0 192.84 19.86 L 193.38 20.04 A 3.639 3.639 0 0 1 193.196 20.749 A 4.783 4.783 0 0 1 192.96 21.285 Q 192.63 21.93 192.075 22.365 A 2.025 2.025 0 0 1 191.099 22.773 A 2.697 2.697 0 0 1 190.71 22.8 A 2.227 2.227 0 0 1 189.869 22.645 A 2.069 2.069 0 0 1 189.195 22.2 Q 188.58 21.6 188.58 20.34 A 3.196 3.196 0 0 1 188.301 20.836 Q 188.095 21.138 187.8 21.45 A 4.492 4.492 0 0 1 186.855 22.204 A 5.362 5.362 0 0 1 186.48 22.41 A 3.66 3.66 0 0 1 185.357 22.753 A 4.748 4.748 0 0 1 184.68 22.8 A 4.366 4.366 0 0 1 183.585 22.67 A 3.066 3.066 0 0 1 182.085 21.795 Q 181.14 20.79 181.14 19.35 A 4.44 4.44 0 0 1 181.249 18.339 A 3.185 3.185 0 0 1 181.815 17.115 A 5.763 5.763 0 0 1 183.384 15.706 A 6.581 6.581 0 0 1 183.51 15.63 Q 184.53 15.03 185.52 14.58 Z M 230.52 14.58 L 233.58 13.17 L 233.58 10.26 A 3.749 3.749 0 0 0 233.46 9.285 A 2.705 2.705 0 0 0 232.65 7.95 A 3.226 3.226 0 0 0 230.822 7.14 A 4.319 4.319 0 0 0 230.31 7.11 A 4.351 4.351 0 0 0 229.371 7.206 A 3.055 3.055 0 0 0 228.18 7.74 A 6.377 6.377 0 0 0 227.684 8.15 Q 227.232 8.567 227.01 8.97 Q 227.579 9.563 227.913 9.953 A 9.571 9.571 0 0 1 228.045 10.11 Q 228.39 10.53 228.39 11.1 A 1.5 1.5 0 0 1 228.153 11.904 A 1.931 1.931 0 0 1 228.045 12.06 A 1.111 1.111 0 0 1 227.371 12.474 A 1.728 1.728 0 0 1 227.01 12.51 A 1.507 1.507 0 0 1 226.555 12.445 A 1.193 1.193 0 0 1 225.975 12.045 A 1.676 1.676 0 0 1 225.624 11.226 A 2.256 2.256 0 0 1 225.6 10.89 A 3.242 3.242 0 0 1 225.681 10.19 Q 225.751 9.873 225.882 9.533 A 5.762 5.762 0 0 1 225.945 9.375 A 5.161 5.161 0 0 1 226.499 8.386 A 6.645 6.645 0 0 1 226.995 7.77 A 5.12 5.12 0 0 1 228.202 6.796 A 6.302 6.302 0 0 1 228.78 6.495 A 5.258 5.258 0 0 1 230.078 6.102 Q 230.664 6 231.33 6 Q 232.92 6 233.865 6.63 A 3.738 3.738 0 0 1 234.797 7.5 A 3.4 3.4 0 0 1 235.215 8.235 Q 235.62 9.21 235.62 10.26 L 235.62 19.98 Q 235.62 21.24 236.49 21.24 A 1.118 1.118 0 0 0 236.943 21.151 Q 237.184 21.046 237.361 20.815 A 1.361 1.361 0 0 0 237.39 20.775 A 3.403 3.403 0 0 0 237.653 20.342 A 2.495 2.495 0 0 0 237.84 19.86 L 238.38 20.04 A 3.639 3.639 0 0 1 238.196 20.749 A 4.783 4.783 0 0 1 237.96 21.285 Q 237.63 21.93 237.075 22.365 A 2.025 2.025 0 0 1 236.099 22.773 A 2.697 2.697 0 0 1 235.71 22.8 A 2.227 2.227 0 0 1 234.869 22.645 A 2.069 2.069 0 0 1 234.195 22.2 Q 233.58 21.6 233.58 20.34 A 3.196 3.196 0 0 1 233.301 20.836 Q 233.095 21.138 232.8 21.45 A 4.492 4.492 0 0 1 231.855 22.204 A 5.362 5.362 0 0 1 231.48 22.41 A 3.66 3.66 0 0 1 230.357 22.753 A 4.748 4.748 0 0 1 229.68 22.8 A 4.366 4.366 0 0 1 228.585 22.67 A 3.066 3.066 0 0 1 227.085 21.795 Q 226.14 20.79 226.14 19.35 A 4.44 4.44 0 0 1 226.249 18.339 A 3.185 3.185 0 0 1 226.815 17.115 A 5.763 5.763 0 0 1 228.384 15.706 A 6.581 6.581 0 0 1 228.51 15.63 Q 229.53 15.03 230.52 14.58 Z M 290.52 14.58 L 293.58 13.17 L 293.58 10.26 A 3.749 3.749 0 0 0 293.46 9.285 A 2.705 2.705 0 0 0 292.65 7.95 A 3.226 3.226 0 0 0 290.822 7.14 A 4.319 4.319 0 0 0 290.31 7.11 A 4.351 4.351 0 0 0 289.371 7.206 A 3.055 3.055 0 0 0 288.18 7.74 A 6.377 6.377 0 0 0 287.684 8.15 Q 287.232 8.567 287.01 8.97 Q 287.579 9.563 287.913 9.953 A 9.571 9.571 0 0 1 288.045 10.11 Q 288.39 10.53 288.39 11.1 A 1.5 1.5 0 0 1 288.153 11.904 A 1.931 1.931 0 0 1 288.045 12.06 A 1.111 1.111 0 0 1 287.371 12.474 A 1.728 1.728 0 0 1 287.01 12.51 A 1.507 1.507 0 0 1 286.555 12.445 A 1.193 1.193 0 0 1 285.975 12.045 A 1.676 1.676 0 0 1 285.624 11.226 A 2.256 2.256 0 0 1 285.6 10.89 A 3.242 3.242 0 0 1 285.681 10.19 Q 285.751 9.873 285.882 9.533 A 5.762 5.762 0 0 1 285.945 9.375 A 5.161 5.161 0 0 1 286.499 8.386 A 6.645 6.645 0 0 1 286.995 7.77 A 5.12 5.12 0 0 1 288.202 6.796 A 6.302 6.302 0 0 1 288.78 6.495 A 5.258 5.258 0 0 1 290.078 6.102 Q 290.664 6 291.33 6 Q 292.92 6 293.865 6.63 A 3.738 3.738 0 0 1 294.797 7.5 A 3.4 3.4 0 0 1 295.215 8.235 Q 295.62 9.21 295.62 10.26 L 295.62 19.98 Q 295.62 21.24 296.49 21.24 A 1.118 1.118 0 0 0 296.943 21.151 Q 297.184 21.046 297.361 20.815 A 1.361 1.361 0 0 0 297.39 20.775 A 3.403 3.403 0 0 0 297.653 20.342 A 2.495 2.495 0 0 0 297.84 19.86 L 298.38 20.04 A 3.639 3.639 0 0 1 298.196 20.749 A 4.783 4.783 0 0 1 297.96 21.285 Q 297.63 21.93 297.075 22.365 A 2.025 2.025 0 0 1 296.099 22.773 A 2.697 2.697 0 0 1 295.71 22.8 A 2.227 2.227 0 0 1 294.869 22.645 A 2.069 2.069 0 0 1 294.195 22.2 Q 293.58 21.6 293.58 20.34 A 3.196 3.196 0 0 1 293.301 20.836 Q 293.095 21.138 292.8 21.45 A 4.492 4.492 0 0 1 291.855 22.204 A 5.362 5.362 0 0 1 291.48 22.41 A 3.66 3.66 0 0 1 290.357 22.753 A 4.748 4.748 0 0 1 289.68 22.8 A 4.366 4.366 0 0 1 288.585 22.67 A 3.066 3.066 0 0 1 287.085 21.795 Q 286.14 20.79 286.14 19.35 A 4.44 4.44 0 0 1 286.249 18.339 A 3.185 3.185 0 0 1 286.815 17.115 A 5.763 5.763 0 0 1 288.384 15.706 A 6.581 6.581 0 0 1 288.51 15.63 Q 289.53 15.03 290.52 14.58 Z M 323.85 7.38 L 323.85 1.86 L 320.79 1.86 L 320.79 1.14 L 323.85 0.75 L 325.17 0 L 325.89 0 L 325.89 20.94 L 328.02 20.94 L 328.02 21.66 L 325.89 22.05 L 324.57 22.8 L 323.85 22.8 L 323.85 20.25 L 323.76 20.25 A 3.162 3.162 0 0 1 323.519 20.734 Q 323.327 21.053 323.04 21.39 A 4.257 4.257 0 0 1 321.986 22.277 A 4.945 4.945 0 0 1 321.78 22.395 A 3.378 3.378 0 0 1 320.537 22.775 A 4.209 4.209 0 0 1 320.07 22.8 A 4.041 4.041 0 0 1 318.764 22.597 A 3.45 3.45 0 0 1 317.475 21.81 Q 316.44 20.82 315.945 19.11 A 12.269 12.269 0 0 1 315.545 17.053 A 16.133 16.133 0 0 1 315.45 15.27 A 18.291 18.291 0 0 1 315.628 12.664 A 14.303 14.303 0 0 1 316.08 10.59 Q 316.71 8.49 317.94 7.245 A 4.117 4.117 0 0 1 320.936 6 A 5.332 5.332 0 0 1 321 6 A 4.191 4.191 0 0 1 321.782 6.069 Q 322.331 6.173 322.755 6.435 A 5.031 5.031 0 0 1 323.294 6.815 Q 323.563 7.035 323.762 7.27 A 2.884 2.884 0 0 1 323.85 7.38 Z M 7.29 22.5 L 0 22.5 L 0 21.48 L 2.52 21.48 L 2.52 1.32 L 0 1.32 L 0 0.3 L 7.11 0.3 A 8.636 8.636 0 0 1 8.727 0.442 Q 9.637 0.615 10.348 1.002 A 4.326 4.326 0 0 1 11.28 1.68 Q 12.72 3.06 12.72 5.7 Q 12.72 7.17 12.24 8.16 A 5.176 5.176 0 0 1 11.815 8.888 Q 11.532 9.289 11.196 9.574 A 3.083 3.083 0 0 1 11.07 9.675 A 4.508 4.508 0 0 1 10.514 10.04 Q 10.187 10.219 9.867 10.312 A 2.627 2.627 0 0 1 9.72 10.35 L 9.72 10.56 Q 10.56 10.71 11.445 11.37 A 4.716 4.716 0 0 1 12.36 12.283 A 6.512 6.512 0 0 1 12.96 13.23 A 5.118 5.118 0 0 1 13.412 14.487 Q 13.546 15.077 13.579 15.762 A 9.626 9.626 0 0 1 13.59 16.23 Q 13.59 19.26 11.97 20.88 Q 10.35 22.5 7.29 22.5 Z M 93.12 22.5 L 92.13 22.5 L 92.13 1.86 L 89.07 1.86 L 89.07 1.14 L 92.13 0.75 L 93.45 0 L 94.17 0 L 94.17 8.55 L 94.26 8.55 Q 94.485 8.016 94.947 7.468 A 6.079 6.079 0 0 1 95.01 7.395 Q 95.52 6.81 96.27 6.405 A 3.378 3.378 0 0 1 97.513 6.025 A 4.209 4.209 0 0 1 97.98 6 A 3.693 3.693 0 0 1 99.36 6.251 A 3.42 3.42 0 0 1 100.5 7.005 Q 101.443 7.934 101.963 9.516 A 9.499 9.499 0 0 1 102.045 9.78 Q 102.537 11.439 102.568 13.573 A 19.887 19.887 0 0 1 102.57 13.86 A 17.381 17.381 0 0 1 102.403 16.327 A 13.382 13.382 0 0 1 101.94 18.405 Q 101.357 20.28 100.285 21.434 A 5.773 5.773 0 0 1 100.11 21.615 A 4.02 4.02 0 0 1 97.197 22.8 A 5.086 5.086 0 0 1 97.17 22.8 A 4.364 4.364 0 0 1 96.282 22.714 A 3.255 3.255 0 0 1 95.31 22.35 A 3.991 3.991 0 0 1 94.458 21.7 A 3.504 3.504 0 0 1 94.065 21.225 A 5.878 5.878 0 0 1 93.723 20.669 Q 93.568 20.378 93.47 20.103 A 3.272 3.272 0 0 1 93.42 19.95 L 93.12 19.95 L 93.12 22.5 Z M 348.42 12.9 L 348.42 15.9 A 9.589 9.589 0 0 0 348.506 17.227 Q 348.651 18.257 349.035 19.035 A 5.316 5.316 0 0 0 349.669 20.037 A 4.05 4.05 0 0 0 350.64 20.91 Q 351.63 21.54 352.77 21.54 A 4.078 4.078 0 0 0 353.687 21.441 A 3.122 3.122 0 0 0 354.63 21.06 A 4.214 4.214 0 0 0 355.614 20.234 A 3.876 3.876 0 0 0 355.89 19.875 Q 356.37 19.17 356.55 18.54 L 357.18 18.75 Q 357.011 19.566 356.46 20.447 A 7.661 7.661 0 0 1 356.385 20.565 A 5.148 5.148 0 0 1 354.987 21.989 A 6.058 6.058 0 0 1 354.735 22.155 A 4.176 4.176 0 0 1 353.271 22.709 A 5.719 5.719 0 0 1 352.23 22.8 Q 350.46 22.8 349.095 21.765 A 6.27 6.27 0 0 1 347.517 19.984 A 8.198 8.198 0 0 1 346.965 18.885 A 9.824 9.824 0 0 1 346.331 16.532 A 13.102 13.102 0 0 1 346.2 14.64 Q 346.2 12.15 347.01 10.2 A 8.282 8.282 0 0 1 347.981 8.456 A 6.675 6.675 0 0 1 349.275 7.125 Q 350.73 6 352.65 6 A 5.74 5.74 0 0 1 354.205 6.205 A 5.037 5.037 0 0 1 355.05 6.525 A 4.753 4.753 0 0 1 356.148 7.252 A 4.115 4.115 0 0 1 356.76 7.935 Q 357.39 8.82 357.39 9.93 A 3.318 3.318 0 0 1 357.346 10.489 Q 357.296 10.784 357.187 11.016 A 1.4 1.4 0 0 1 356.865 11.46 A 2.036 2.036 0 0 1 356.443 11.762 A 1.488 1.488 0 0 1 355.74 11.94 A 1.397 1.397 0 0 1 354.906 11.663 A 1.744 1.744 0 0 1 354.855 11.625 A 1.025 1.025 0 0 1 354.456 10.879 A 1.479 1.479 0 0 1 354.45 10.74 A 1.604 1.604 0 0 1 354.708 9.874 A 2.176 2.176 0 0 1 354.9 9.615 A 6.37 6.37 0 0 0 355.22 9.206 Q 355.378 8.988 355.545 8.727 A 15.284 15.284 0 0 0 355.89 8.16 Q 355.62 7.808 354.947 7.445 A 6.989 6.989 0 0 0 354.795 7.365 Q 354.051 6.986 353.005 6.962 A 6.234 6.234 0 0 0 352.86 6.96 A 4.426 4.426 0 0 0 351.365 7.201 A 3.73 3.73 0 0 0 349.59 8.55 A 5.517 5.517 0 0 0 348.75 10.298 Q 348.528 11.061 348.456 11.973 A 11.657 11.657 0 0 0 348.42 12.9 Z M 513.42 12.9 L 513.42 15.9 A 9.589 9.589 0 0 0 513.506 17.227 Q 513.651 18.257 514.035 19.035 A 5.316 5.316 0 0 0 514.669 20.037 A 4.05 4.05 0 0 0 515.64 20.91 Q 516.63 21.54 517.77 21.54 A 4.078 4.078 0 0 0 518.687 21.441 A 3.122 3.122 0 0 0 519.63 21.06 A 4.214 4.214 0 0 0 520.614 20.234 A 3.876 3.876 0 0 0 520.89 19.875 Q 521.37 19.17 521.55 18.54 L 522.18 18.75 Q 522.011 19.566 521.46 20.447 A 7.661 7.661 0 0 1 521.385 20.565 A 5.148 5.148 0 0 1 519.987 21.989 A 6.058 6.058 0 0 1 519.735 22.155 A 4.176 4.176 0 0 1 518.271 22.709 A 5.719 5.719 0 0 1 517.23 22.8 Q 515.46 22.8 514.095 21.765 A 6.27 6.27 0 0 1 512.517 19.984 A 8.198 8.198 0 0 1 511.965 18.885 A 9.824 9.824 0 0 1 511.331 16.532 A 13.102 13.102 0 0 1 511.2 14.64 Q 511.2 12.15 512.01 10.2 A 8.282 8.282 0 0 1 512.981 8.456 A 6.675 6.675 0 0 1 514.275 7.125 Q 515.73 6 517.65 6 A 5.74 5.74 0 0 1 519.205 6.205 A 5.037 5.037 0 0 1 520.05 6.525 A 4.753 4.753 0 0 1 521.148 7.252 A 4.115 4.115 0 0 1 521.76 7.935 Q 522.39 8.82 522.39 9.93 A 3.318 3.318 0 0 1 522.346 10.489 Q 522.296 10.784 522.187 11.016 A 1.4 1.4 0 0 1 521.865 11.46 A 2.036 2.036 0 0 1 521.443 11.762 A 1.488 1.488 0 0 1 520.74 11.94 A 1.397 1.397 0 0 1 519.906 11.663 A 1.744 1.744 0 0 1 519.855 11.625 A 1.025 1.025 0 0 1 519.456 10.879 A 1.479 1.479 0 0 1 519.45 10.74 A 1.604 1.604 0 0 1 519.708 9.874 A 2.176 2.176 0 0 1 519.9 9.615 A 6.37 6.37 0 0 0 520.22 9.206 Q 520.378 8.988 520.545 8.727 A 15.284 15.284 0 0 0 520.89 8.16 Q 520.62 7.808 519.947 7.445 A 6.989 6.989 0 0 0 519.795 7.365 Q 519.051 6.986 518.005 6.962 A 6.234 6.234 0 0 0 517.86 6.96 A 4.426 4.426 0 0 0 516.365 7.201 A 3.73 3.73 0 0 0 514.59 8.55 A 5.517 5.517 0 0 0 513.75 10.298 Q 513.528 11.061 513.456 11.973 A 11.657 11.657 0 0 0 513.42 12.9 Z M 568.35 22.5 L 554.97 22.5 L 554.97 21.48 L 560.64 21.48 L 560.64 7.86 L 556.38 7.86 L 556.38 7.14 L 560.64 6.75 L 561.96 6 L 562.68 6 L 562.68 21.48 L 568.35 21.48 L 568.35 22.5 Z M 267.54 13.38 L 258.21 13.38 L 258.21 15.9 A 8.945 8.945 0 0 0 258.303 17.227 Q 258.458 18.257 258.87 19.035 A 5.093 5.093 0 0 0 259.662 20.155 A 4.233 4.233 0 0 0 260.61 20.91 Q 261.69 21.54 262.89 21.54 A 4.51 4.51 0 0 0 263.79 21.455 A 3.232 3.232 0 0 0 264.825 21.06 A 4.345 4.345 0 0 0 265.813 20.254 A 3.963 3.963 0 0 0 266.115 19.875 Q 266.61 19.17 266.79 18.54 L 267.42 18.75 Q 267.24 19.62 266.61 20.565 Q 265.98 21.51 264.93 22.155 Q 263.88 22.8 262.38 22.8 Q 260.55 22.8 259.095 21.765 A 6.502 6.502 0 0 1 257.298 19.8 A 8.289 8.289 0 0 1 256.815 18.87 A 9.376 9.376 0 0 1 256.137 16.519 A 12.637 12.637 0 0 1 255.99 14.55 Q 255.99 12.93 256.365 11.415 Q 256.74 9.9 257.535 8.67 Q 258.33 7.44 259.515 6.72 A 4.904 4.904 0 0 1 261.327 6.074 A 6.45 6.45 0 0 1 262.32 6 A 5.626 5.626 0 0 1 264.126 6.278 A 4.693 4.693 0 0 1 266.145 7.62 Q 267.6 9.24 267.6 12.15 Q 267.6 12.54 267.585 12.87 A 8.405 8.405 0 0 1 267.577 13.026 Q 267.563 13.245 267.54 13.38 Z M 447.54 13.38 L 438.21 13.38 L 438.21 15.9 A 8.945 8.945 0 0 0 438.303 17.227 Q 438.458 18.257 438.87 19.035 A 5.093 5.093 0 0 0 439.662 20.155 A 4.233 4.233 0 0 0 440.61 20.91 Q 441.69 21.54 442.89 21.54 A 4.51 4.51 0 0 0 443.79 21.455 A 3.232 3.232 0 0 0 444.825 21.06 A 4.345 4.345 0 0 0 445.813 20.254 A 3.963 3.963 0 0 0 446.115 19.875 Q 446.61 19.17 446.79 18.54 L 447.42 18.75 Q 447.24 19.62 446.61 20.565 Q 445.98 21.51 444.93 22.155 Q 443.88 22.8 442.38 22.8 Q 440.55 22.8 439.095 21.765 A 6.502 6.502 0 0 1 437.298 19.8 A 8.289 8.289 0 0 1 436.815 18.87 A 9.376 9.376 0 0 1 436.137 16.519 A 12.637 12.637 0 0 1 435.99 14.55 Q 435.99 12.93 436.365 11.415 Q 436.74 9.9 437.535 8.67 Q 438.33 7.44 439.515 6.72 A 4.904 4.904 0 0 1 441.327 6.074 A 6.45 6.45 0 0 1 442.32 6 A 5.626 5.626 0 0 1 444.126 6.278 A 4.693 4.693 0 0 1 446.145 7.62 Q 447.6 9.24 447.6 12.15 Q 447.6 12.54 447.585 12.87 A 8.405 8.405 0 0 1 447.577 13.026 Q 447.563 13.245 447.54 13.38 Z M 507.54 13.38 L 498.21 13.38 L 498.21 15.9 A 8.945 8.945 0 0 0 498.303 17.227 Q 498.458 18.257 498.87 19.035 A 5.093 5.093 0 0 0 499.662 20.155 A 4.233 4.233 0 0 0 500.61 20.91 Q 501.69 21.54 502.89 21.54 A 4.51 4.51 0 0 0 503.79 21.455 A 3.232 3.232 0 0 0 504.825 21.06 A 4.345 4.345 0 0 0 505.813 20.254 A 3.963 3.963 0 0 0 506.115 19.875 Q 506.61 19.17 506.79 18.54 L 507.42 18.75 Q 507.24 19.62 506.61 20.565 Q 505.98 21.51 504.93 22.155 Q 503.88 22.8 502.38 22.8 Q 500.55 22.8 499.095 21.765 A 6.502 6.502 0 0 1 497.298 19.8 A 8.289 8.289 0 0 1 496.815 18.87 A 9.376 9.376 0 0 1 496.137 16.519 A 12.637 12.637 0 0 1 495.99 14.55 Q 495.99 12.93 496.365 11.415 Q 496.74 9.9 497.535 8.67 Q 498.33 7.44 499.515 6.72 A 4.904 4.904 0 0 1 501.327 6.074 A 6.45 6.45 0 0 1 502.32 6 A 5.626 5.626 0 0 1 504.126 6.278 A 4.693 4.693 0 0 1 506.145 7.62 Q 507.6 9.24 507.6 12.15 Q 507.6 12.54 507.585 12.87 A 8.405 8.405 0 0 1 507.577 13.026 Q 507.563 13.245 507.54 13.38 Z M 35.278 22.629 A 5.374 5.374 0 0 0 36.66 22.8 A 5.785 5.785 0 0 0 37.429 22.75 A 4.504 4.504 0 0 0 39.27 22.095 A 5.446 5.446 0 0 0 39.935 21.598 A 5.986 5.986 0 0 0 41.115 20.175 A 8.755 8.755 0 0 0 41.469 19.53 A 9.794 9.794 0 0 0 42.21 17.46 Q 42.57 15.96 42.57 14.4 Q 42.57 12.81 42.21 11.325 Q 41.85 9.84 41.115 8.625 A 6.685 6.685 0 0 0 40.925 8.329 A 5.664 5.664 0 0 0 39.27 6.705 A 4.361 4.361 0 0 0 38.042 6.171 A 5.374 5.374 0 0 0 36.66 6 A 5.785 5.785 0 0 0 35.891 6.05 A 4.504 4.504 0 0 0 34.05 6.705 A 5.446 5.446 0 0 0 33.385 7.202 A 5.986 5.986 0 0 0 32.205 8.625 Q 31.47 9.84 31.11 11.325 Q 30.75 12.81 30.75 14.4 Q 30.75 15.96 31.11 17.46 A 10.703 10.703 0 0 0 31.245 17.967 A 9.273 9.273 0 0 0 32.205 20.175 A 6.685 6.685 0 0 0 32.395 20.471 A 5.664 5.664 0 0 0 34.05 22.095 A 4.361 4.361 0 0 0 35.278 22.629 Z M 110.278 22.629 A 5.374 5.374 0 0 0 111.66 22.8 A 5.785 5.785 0 0 0 112.429 22.75 A 4.504 4.504 0 0 0 114.27 22.095 A 5.446 5.446 0 0 0 114.935 21.598 A 5.986 5.986 0 0 0 116.115 20.175 A 8.755 8.755 0 0 0 116.469 19.53 A 9.794 9.794 0 0 0 117.21 17.46 Q 117.57 15.96 117.57 14.4 Q 117.57 12.81 117.21 11.325 Q 116.85 9.84 116.115 8.625 A 6.685 6.685 0 0 0 115.925 8.329 A 5.664 5.664 0 0 0 114.27 6.705 A 4.361 4.361 0 0 0 113.042 6.171 A 5.374 5.374 0 0 0 111.66 6 A 5.785 5.785 0 0 0 110.891 6.05 A 4.504 4.504 0 0 0 109.05 6.705 A 5.446 5.446 0 0 0 108.385 7.202 A 5.986 5.986 0 0 0 107.205 8.625 Q 106.47 9.84 106.11 11.325 Q 105.75 12.81 105.75 14.4 Q 105.75 15.96 106.11 17.46 A 10.703 10.703 0 0 0 106.245 17.967 A 9.273 9.273 0 0 0 107.205 20.175 A 6.685 6.685 0 0 0 107.395 20.471 A 5.664 5.664 0 0 0 109.05 22.095 A 4.361 4.361 0 0 0 110.278 22.629 Z M 365.278 22.629 A 5.374 5.374 0 0 0 366.66 22.8 A 5.785 5.785 0 0 0 367.429 22.75 A 4.504 4.504 0 0 0 369.27 22.095 A 5.446 5.446 0 0 0 369.935 21.598 A 5.986 5.986 0 0 0 371.115 20.175 A 8.755 8.755 0 0 0 371.469 19.53 A 9.794 9.794 0 0 0 372.21 17.46 Q 372.57 15.96 372.57 14.4 Q 372.57 12.81 372.21 11.325 Q 371.85 9.84 371.115 8.625 A 6.685 6.685 0 0 0 370.925 8.329 A 5.664 5.664 0 0 0 369.27 6.705 A 4.361 4.361 0 0 0 368.042 6.171 A 5.374 5.374 0 0 0 366.66 6 A 5.785 5.785 0 0 0 365.891 6.05 A 4.504 4.504 0 0 0 364.05 6.705 A 5.446 5.446 0 0 0 363.385 7.202 A 5.986 5.986 0 0 0 362.205 8.625 Q 361.47 9.84 361.11 11.325 Q 360.75 12.81 360.75 14.4 Q 360.75 15.96 361.11 17.46 A 10.703 10.703 0 0 0 361.245 17.967 A 9.273 9.273 0 0 0 362.205 20.175 A 6.685 6.685 0 0 0 362.395 20.471 A 5.664 5.664 0 0 0 364.05 22.095 A 4.361 4.361 0 0 0 365.278 22.629 Z M 40.47 15.9 L 40.47 12.9 A 13.189 13.189 0 0 0 40.376 11.275 Q 40.273 10.446 40.057 9.761 A 5.577 5.577 0 0 0 39.51 8.535 Q 38.55 6.96 36.66 6.96 Q 34.77 6.96 33.81 8.535 Q 32.85 10.11 32.85 12.9 L 32.85 15.9 Q 32.85 17.731 33.263 19.039 A 5.577 5.577 0 0 0 33.81 20.265 Q 34.77 21.84 36.66 21.84 Q 38.55 21.84 39.51 20.265 Q 40.47 18.69 40.47 15.9 Z M 115.47 15.9 L 115.47 12.9 A 13.189 13.189 0 0 0 115.376 11.275 Q 115.273 10.446 115.057 9.761 A 5.577 5.577 0 0 0 114.51 8.535 Q 113.55 6.96 111.66 6.96 Q 109.77 6.96 108.81 8.535 Q 107.85 10.11 107.85 12.9 L 107.85 15.9 Q 107.85 17.731 108.263 19.039 A 5.577 5.577 0 0 0 108.81 20.265 Q 109.77 21.84 111.66 21.84 Q 113.55 21.84 114.51 20.265 Q 115.47 18.69 115.47 15.9 Z M 370.47 15.9 L 370.47 12.9 A 13.189 13.189 0 0 0 370.376 11.275 Q 370.273 10.446 370.057 9.761 A 5.577 5.577 0 0 0 369.51 8.535 Q 368.55 6.96 366.66 6.96 Q 364.77 6.96 363.81 8.535 Q 362.85 10.11 362.85 12.9 L 362.85 15.9 Q 362.85 17.731 363.263 19.039 A 5.577 5.577 0 0 0 363.81 20.265 Q 364.77 21.84 366.66 21.84 Q 368.55 21.84 369.51 20.265 Q 370.47 18.69 370.47 15.9 Z M 323.85 18.33 L 323.85 11.07 A 9.16 9.16 0 0 0 323.789 9.968 Q 323.649 8.82 323.191 8.154 A 2.255 2.255 0 0 0 322.98 7.89 A 2.885 2.885 0 0 0 321.879 7.138 A 2.914 2.914 0 0 0 320.85 6.96 A 3.094 3.094 0 0 0 319.771 7.141 A 2.694 2.694 0 0 0 318.6 7.995 Q 317.974 8.766 317.814 10.096 A 8.196 8.196 0 0 0 317.76 11.07 L 317.76 18.18 A 5.851 5.851 0 0 0 317.829 19.114 Q 317.908 19.6 318.076 19.981 A 2.26 2.26 0 0 0 318.66 20.79 Q 319.56 21.57 320.7 21.57 A 3.271 3.271 0 0 0 321.472 21.483 A 2.408 2.408 0 0 0 322.395 21.045 Q 323.07 20.52 323.43 19.77 A 4.834 4.834 0 0 0 323.712 19.046 A 3.651 3.651 0 0 0 323.85 18.33 Z M 100.26 17.73 L 100.26 10.62 A 5.851 5.851 0 0 0 100.191 9.686 Q 100.112 9.2 99.944 8.819 A 2.26 2.26 0 0 0 99.36 8.01 Q 98.46 7.23 97.32 7.23 A 3.271 3.271 0 0 0 96.548 7.317 A 2.408 2.408 0 0 0 95.625 7.755 Q 94.95 8.28 94.605 9.03 Q 94.26 9.78 94.17 10.47 L 94.17 17.73 A 9.16 9.16 0 0 0 94.231 18.832 Q 94.371 19.98 94.829 20.646 A 2.255 2.255 0 0 0 95.04 20.91 A 2.885 2.885 0 0 0 96.141 21.662 A 2.914 2.914 0 0 0 97.17 21.84 A 3.094 3.094 0 0 0 98.249 21.659 A 2.694 2.694 0 0 0 99.42 20.805 Q 100.046 20.034 100.206 18.704 A 8.196 8.196 0 0 0 100.26 17.73 Z M 395.01 10.47 L 395.01 17.73 A 9.16 9.16 0 0 0 395.071 18.832 Q 395.211 19.98 395.669 20.646 A 2.255 2.255 0 0 0 395.88 20.91 A 2.885 2.885 0 0 0 396.981 21.662 A 2.914 2.914 0 0 0 398.01 21.84 A 3.094 3.094 0 0 0 399.089 21.659 A 2.694 2.694 0 0 0 400.26 20.805 Q 400.886 20.034 401.046 18.704 A 8.196 8.196 0 0 0 401.1 17.73 L 401.1 10.62 A 5.851 5.851 0 0 0 401.031 9.686 Q 400.952 9.2 400.784 8.819 A 2.26 2.26 0 0 0 400.2 8.01 Q 399.3 7.23 398.16 7.23 A 3.271 3.271 0 0 0 397.388 7.317 A 2.408 2.408 0 0 0 396.465 7.755 Q 395.79 8.28 395.445 9.03 Q 395.1 9.78 395.01 10.47 Z M 4.62 11.01 L 4.62 21.54 L 7.35 21.54 A 5.677 5.677 0 0 0 8.425 21.445 Q 9.51 21.235 10.17 20.565 Q 11.021 19.7 11.118 18.164 A 6.447 6.447 0 0 0 11.13 17.76 L 11.13 14.79 Q 11.13 12.93 10.17 11.97 A 3.057 3.057 0 0 0 8.897 11.221 Q 8.412 11.069 7.825 11.027 A 6.552 6.552 0 0 0 7.35 11.01 L 4.62 11.01 Z M 4.62 1.26 L 4.62 10.08 L 7.35 10.08 Q 9.731 10.08 10.222 8.191 A 4.42 4.42 0 0 0 10.35 7.08 L 10.35 4.26 Q 10.35 1.879 8.461 1.388 A 4.42 4.42 0 0 0 7.35 1.26 L 4.62 1.26 Z M 52.47 20.85 L 49.59 20.64 A 2.533 2.533 0 0 0 49.405 20.699 Q 49.197 20.774 48.907 20.907 A 13.208 13.208 0 0 0 48.615 21.045 A 3.236 3.236 0 0 0 47.82 21.601 A 4.125 4.125 0 0 0 47.445 22.005 Q 46.982 22.574 46.927 23.504 A 4.359 4.359 0 0 0 46.92 23.76 A 3.091 3.091 0 0 0 47.153 24.979 Q 47.461 25.707 48.18 26.22 A 4.593 4.593 0 0 0 49.756 26.929 Q 50.38 27.084 51.108 27.113 A 8.556 8.556 0 0 0 51.45 27.12 A 7.52 7.52 0 0 0 52.938 26.98 Q 53.908 26.785 54.67 26.315 A 4.667 4.667 0 0 0 54.84 26.205 A 3.212 3.212 0 0 0 55.701 25.369 Q 56.159 24.701 56.188 23.819 A 3.658 3.658 0 0 0 56.19 23.7 A 3.129 3.129 0 0 0 56.119 23.012 Q 56.015 22.549 55.757 22.21 A 1.846 1.846 0 0 0 55.56 21.99 Q 54.93 21.39 54.06 21.135 A 8.136 8.136 0 0 0 53.327 20.955 Q 52.932 20.878 52.572 20.855 A 4.864 4.864 0 0 0 52.47 20.85 Z M 54.66 11.64 L 54.66 10.38 Q 54.66 8.88 53.97 7.86 A 2.204 2.204 0 0 0 52.677 6.961 Q 52.237 6.84 51.69 6.84 A 3.878 3.878 0 0 0 50.826 6.93 Q 50.273 7.056 49.878 7.36 A 2.132 2.132 0 0 0 49.41 7.86 A 3.919 3.919 0 0 0 48.821 9.302 A 5.476 5.476 0 0 0 48.72 10.38 L 48.72 11.64 Q 48.72 13.14 49.41 14.16 A 2.204 2.204 0 0 0 50.703 15.059 Q 51.143 15.18 51.69 15.18 A 3.878 3.878 0 0 0 52.554 15.09 Q 53.107 14.964 53.502 14.66 A 2.132 2.132 0 0 0 53.97 14.16 A 3.919 3.919 0 0 0 54.559 12.718 A 5.476 5.476 0 0 0 54.66 11.64 Z M 258.21 12.6 L 264.21 12.6 Q 264.54 12.6 264.855 12.525 A 0.722 0.722 0 0 0 265.173 12.353 Q 265.293 12.245 265.395 12.075 Q 265.58 11.767 265.613 11.105 A 6.134 6.134 0 0 0 265.62 10.8 A 5.765 5.765 0 0 0 265.519 9.685 Q 265.392 9.04 265.104 8.54 A 2.981 2.981 0 0 0 264.66 7.95 A 3.191 3.191 0 0 0 262.35 6.961 A 4.125 4.125 0 0 0 262.26 6.96 A 3.593 3.593 0 0 0 261.127 7.132 A 3.086 3.086 0 0 0 260.115 7.695 A 4.28 4.28 0 0 0 259.147 8.858 A 5.688 5.688 0 0 0 258.75 9.705 A 8.213 8.213 0 0 0 258.332 11.318 A 10.742 10.742 0 0 0 258.21 12.6 Z M 438.21 12.6 L 444.21 12.6 Q 444.54 12.6 444.855 12.525 A 0.722 0.722 0 0 0 445.173 12.353 Q 445.293 12.245 445.395 12.075 Q 445.58 11.767 445.613 11.105 A 6.134 6.134 0 0 0 445.62 10.8 A 5.765 5.765 0 0 0 445.519 9.685 Q 445.392 9.04 445.104 8.54 A 2.981 2.981 0 0 0 444.66 7.95 A 3.191 3.191 0 0 0 442.35 6.961 A 4.125 4.125 0 0 0 442.26 6.96 A 3.593 3.593 0 0 0 441.127 7.132 A 3.086 3.086 0 0 0 440.115 7.695 A 4.28 4.28 0 0 0 439.147 8.858 A 5.688 5.688 0 0 0 438.75 9.705 A 8.213 8.213 0 0 0 438.332 11.318 A 10.742 10.742 0 0 0 438.21 12.6 Z M 498.21 12.6 L 504.21 12.6 Q 504.54 12.6 504.855 12.525 A 0.722 0.722 0 0 0 505.173 12.353 Q 505.293 12.245 505.395 12.075 Q 505.58 11.767 505.613 11.105 A 6.134 6.134 0 0 0 505.62 10.8 A 5.765 5.765 0 0 0 505.519 9.685 Q 505.392 9.04 505.104 8.54 A 2.981 2.981 0 0 0 504.66 7.95 A 3.191 3.191 0 0 0 502.35 6.961 A 4.125 4.125 0 0 0 502.26 6.96 A 3.593 3.593 0 0 0 501.127 7.132 A 3.086 3.086 0 0 0 500.115 7.695 A 4.28 4.28 0 0 0 499.147 8.858 A 5.688 5.688 0 0 0 498.75 9.705 A 8.213 8.213 0 0 0 498.332 11.318 A 10.742 10.742 0 0 0 498.21 12.6 Z M 83.58 19.38 L 83.58 13.89 L 80.73 15.3 Q 80.04 15.63 79.41 16.035 Q 78.78 16.44 78.375 17.04 Q 78.046 17.527 77.984 18.291 A 4.575 4.575 0 0 0 77.97 18.66 A 3.158 3.158 0 0 0 78.16 19.771 A 2.849 2.849 0 0 0 78.69 20.655 Q 79.41 21.48 80.61 21.48 A 3.024 3.024 0 0 0 81.435 21.371 A 2.61 2.61 0 0 0 82.005 21.135 A 3.927 3.927 0 0 0 82.677 20.664 A 3.316 3.316 0 0 0 83.025 20.31 A 3.747 3.747 0 0 0 83.312 19.925 Q 83.446 19.717 83.53 19.514 A 2.041 2.041 0 0 0 83.58 19.38 Z M 188.58 19.38 L 188.58 13.89 L 185.73 15.3 Q 185.04 15.63 184.41 16.035 Q 183.78 16.44 183.375 17.04 Q 183.046 17.527 182.984 18.291 A 4.575 4.575 0 0 0 182.97 18.66 A 3.158 3.158 0 0 0 183.16 19.771 A 2.849 2.849 0 0 0 183.69 20.655 Q 184.41 21.48 185.61 21.48 A 3.024 3.024 0 0 0 186.435 21.371 A 2.61 2.61 0 0 0 187.005 21.135 A 3.927 3.927 0 0 0 187.677 20.664 A 3.316 3.316 0 0 0 188.025 20.31 A 3.747 3.747 0 0 0 188.312 19.925 Q 188.446 19.717 188.53 19.514 A 2.041 2.041 0 0 0 188.58 19.38 Z M 233.58 19.38 L 233.58 13.89 L 230.73 15.3 Q 230.04 15.63 229.41 16.035 Q 228.78 16.44 228.375 17.04 Q 228.046 17.527 227.984 18.291 A 4.575 4.575 0 0 0 227.97 18.66 A 3.158 3.158 0 0 0 228.16 19.771 A 2.849 2.849 0 0 0 228.69 20.655 Q 229.41 21.48 230.61 21.48 A 3.024 3.024 0 0 0 231.435 21.371 A 2.61 2.61 0 0 0 232.005 21.135 A 3.927 3.927 0 0 0 232.677 20.664 A 3.316 3.316 0 0 0 233.025 20.31 A 3.747 3.747 0 0 0 233.312 19.925 Q 233.446 19.717 233.53 19.514 A 2.041 2.041 0 0 0 233.58 19.38 Z M 293.58 19.38 L 293.58 13.89 L 290.73 15.3 Q 290.04 15.63 289.41 16.035 Q 288.78 16.44 288.375 17.04 Q 288.046 17.527 287.984 18.291 A 4.575 4.575 0 0 0 287.97 18.66 A 3.158 3.158 0 0 0 288.16 19.771 A 2.849 2.849 0 0 0 288.69 20.655 Q 289.41 21.48 290.61 21.48 A 3.024 3.024 0 0 0 291.435 21.371 A 2.61 2.61 0 0 0 292.005 21.135 A 3.927 3.927 0 0 0 292.677 20.664 A 3.316 3.316 0 0 0 293.025 20.31 A 3.747 3.747 0 0 0 293.312 19.925 Q 293.446 19.717 293.53 19.514 A 2.041 2.041 0 0 0 293.58 19.38 Z M 560.917 3.432 A 1.633 1.633 0 0 0 561.66 3.6 A 1.97 1.97 0 0 0 561.682 3.6 A 1.59 1.59 0 0 0 562.83 3.12 A 1.65 1.65 0 0 0 563.142 2.693 A 1.633 1.633 0 0 0 563.31 1.95 A 1.97 1.97 0 0 0 563.31 1.928 A 1.59 1.59 0 0 0 562.83 0.78 A 1.65 1.65 0 0 0 562.403 0.468 A 1.633 1.633 0 0 0 561.66 0.3 A 1.97 1.97 0 0 0 561.638 0.3 A 1.59 1.59 0 0 0 560.49 0.78 A 1.65 1.65 0 0 0 560.178 1.207 A 1.633 1.633 0 0 0 560.01 1.95 A 1.97 1.97 0 0 0 560.01 1.972 A 1.59 1.59 0 0 0 560.49 3.12 A 1.65 1.65 0 0 0 560.917 3.432 Z M 605.917 22.632 A 1.633 1.633 0 0 0 606.66 22.8 A 1.97 1.97 0 0 0 606.682 22.8 A 1.59 1.59 0 0 0 607.83 22.32 A 1.65 1.65 0 0 0 608.142 21.893 A 1.633 1.633 0 0 0 608.31 21.15 A 1.97 1.97 0 0 0 608.31 21.128 A 1.59 1.59 0 0 0 607.83 19.98 A 1.65 1.65 0 0 0 607.403 19.668 A 1.633 1.633 0 0 0 606.66 19.5 A 1.97 1.97 0 0 0 606.638 19.5 A 1.59 1.59 0 0 0 605.49 19.98 A 1.65 1.65 0 0 0 605.178 20.407 A 1.633 1.633 0 0 0 605.01 21.15 A 1.97 1.97 0 0 0 605.01 21.172 A 1.59 1.59 0 0 0 605.49 22.32 A 1.65 1.65 0 0 0 605.917 22.632 Z" vector-effect="non-scaling-stroke"/></g></svg>